G04 FAB 3000 Version 8.1.7 - Gerber/CAM Software*
G04 RS274-X Output*
%FSLAX24Y24*%
%MIA0B0*%
%MOIN*%
%SFA1.000000B1.000000*%

%IPPOS*%
%ADD16C,0.045898*%
%ADD17C,0.045910*%
%ADD18C,0.045890*%
%ADD19C,0.045960*%
%ADD20C,0.045940*%
%ADD21C,0.045950*%
%ADD22C,0.045880*%
%ADD23C,0.045800*%
%ADD24C,0.046000*%
%ADD25C,0.052734*%
%ADD26C,0.052679*%
%ADD28C,0.052720*%
%ADD29C,0.052700*%
%ADD30C,0.052800*%
%ADD31C,0.052600*%
%ADD32C,0.063750*%
%ADD33C,0.063790*%
%ADD34C,0.063810*%
%ADD35C,0.063740*%
%ADD36C,0.063730*%
%ADD37C,0.063800*%
%ADD38C,0.063760*%
%ADD39C,0.063770*%
%ADD40C,0.063700*%
%ADD41C,0.063709*%
%ADD42C,0.076498*%
%ADD43C,0.085010*%
%ADD44C,0.084960*%
%ADD45C,0.085020*%
%ADD46C,0.106283*%
%ADD47C,0.106228*%
%ADD48C,0.106300*%
%ADD50R,0.060004X0.060010*%
%ADD51R,0.060004X0.060020*%
%ADD52R,0.060004X0.060000*%
%ADD53R,0.060005X0.060070*%
%ADD54R,0.060000X0.060100*%
%ADD56R,0.060010X0.060060*%
%ADD57R,0.060020X0.060010*%
%ADD58R,0.060020X0.060000*%
%ADD59R,0.060000X0.060060*%
%ADD60R,0.060000X0.059990*%
%ADD61R,0.060020X0.060020*%
%ADD64R,0.060000X0.060050*%
%ADD67R,0.060010X0.060100*%
%ADD68R,0.060020X0.060100*%
%ADD70R,0.060100X0.060000*%
%ADD72R,0.075000X0.075000*%
%ADD73R,0.075040X0.075000*%
%ADD74R,0.075020X0.075000*%
%ADD75C,0.170030*%
%ADD76C,0.169980*%
%ADD77C,0.170100*%
%ADD78C,0.170000*%
%ADD79C,0.127500*%
%ADD80C,0.029731*%
%ADD81C,0.029784*%
%ADD82C,0.029770*%
%ADD83C,0.029740*%
%ADD84C,0.029800*%
%ADD85C,0.029700*%
%ADD86C,0.029900*%
%ADD87R,0.400010X0.400070*%
%ADD89R,0.053990X0.053980*%
%ADD90R,0.054030X0.054040*%
%ADD91R,0.053990X0.054040*%
%ADD92R,0.054000X0.053990*%
%ADD93R,0.054000X0.054000*%
%ADD94R,0.054000X0.054040*%
%ADD95R,0.250000X0.100000*%
%ADD96R,0.250000X0.099990*%
%ADD97R,0.099990X0.150000*%
%ADD98R,0.100040X0.150000*%
%ADD99R,0.100000X0.150000*%
%ADD100R,0.099980X0.150000*%
%ADD101R,0.150020X0.100100*%
%ADD102R,0.150010X0.100100*%
%ADD106R,0.074979X0.095000*%
%ADD107R,0.075032X0.095040*%
%ADD108R,0.075032X0.095000*%
%ADD109R,0.075032X0.095060*%
%ADD110R,0.074977X0.095060*%
%ADD111R,0.074970X0.095000*%
%ADD113R,0.075020X0.095000*%
%ADD115R,0.074980X0.095050*%
%ADD117R,0.075050X0.095000*%
%ADD118R,0.075030X0.095050*%
%ADD119R,0.075030X0.094980*%
%ADD121R,0.075030X0.094990*%
%ADD122R,0.074990X0.094980*%
%ADD124R,0.074990X0.095060*%
%ADD125R,0.074990X0.094990*%
%ADD126R,0.074970X0.095050*%
%ADD127R,0.074990X0.095000*%
%ADD129R,0.074970X0.095040*%
%ADD130R,0.075040X0.095050*%
%ADD133R,0.075040X0.095100*%
%ADD134R,0.074970X0.095100*%
%ADD137R,0.075000X0.095000*%
%ADD139C,0.029720*%
%ADD141R,0.039020X0.011000*%
%ADD142R,0.037980X0.010000*%
%ADD143R,0.034980X0.007000*%
%ADD144R,0.010960X0.039000*%
%ADD145R,0.009980X0.038000*%
%ADD146R,0.007000X0.035000*%
%ADD147R,0.039000X0.011010*%
%ADD148R,0.038000X0.010040*%
%ADD149R,0.035000X0.007000*%
%ADD150R,0.039000X0.011020*%
%ADD151R,0.037900X0.010050*%
%ADD152R,0.035000X0.007010*%
%ADD153R,0.038100X0.010040*%
%ADD154R,0.011000X0.039000*%
%ADD155R,0.010000X0.038030*%
%ADD156R,0.011000X0.039020*%
%ADD157R,0.007000X0.035040*%
%ADD158R,0.037990X0.010000*%
%ADD159R,0.038000X0.010050*%
%ADD207R,0.060050X0.060020*%
%ADD208R,0.060100X0.060020*%
%ADD209C,0.025500*%
%ADD210C,0.025490*%
%ADD211C,0.025560*%
%ADD212R,0.315000X0.315060*%
%ADD213R,0.079970X0.025010*%
%ADD214R,0.079970X0.024960*%
%ADD215R,0.079970X0.025000*%
%ADD216R,0.079970X0.025020*%
%ADD217R,0.080010X0.025010*%
%ADD218R,0.080010X0.025000*%
%ADD219R,0.080010X0.025020*%
%ADD220R,0.080010X0.024950*%
%ADD221R,0.080030X0.025020*%
%ADD222R,0.080030X0.025010*%
%ADD223R,0.080030X0.024960*%
%ADD224R,0.080030X0.025000*%
%ADD225R,0.080030X0.024950*%
%ADD226R,0.080020X0.025020*%
%ADD227R,0.080020X0.025010*%
%ADD228R,0.080020X0.025000*%
%ADD229R,0.080020X0.024960*%
%ADD230R,0.079980X0.025010*%
%ADD231R,0.079980X0.024960*%
%ADD232R,0.079980X0.025000*%
%ADD233R,0.079980X0.025020*%
%ADD234R,0.079970X0.024940*%
%ADD235R,0.080030X0.024940*%
%ADD236R,0.080030X0.025050*%
%ADD237R,0.080030X0.025100*%
%ADD238R,0.079970X0.024950*%
%ADD239R,0.080000X0.025020*%
%ADD240R,0.080000X0.025010*%
%ADD241R,0.080000X0.025000*%
%ADD242R,0.080000X0.024960*%
%ADD243R,0.025010X0.080030*%
%ADD244R,0.025020X0.080030*%
%ADD245R,0.025020X0.079980*%
%ADD246R,0.025010X0.079980*%
%ADD247R,0.025000X0.079980*%
%ADD248R,0.025000X0.080030*%
%ADD249R,0.024960X0.080030*%
%ADD250R,0.025000X0.080020*%
%ADD251R,0.025010X0.080020*%
%ADD252R,0.025020X0.080020*%
%ADD253R,0.024960X0.080020*%
%ADD254R,0.025020X0.080000*%
%ADD255R,0.024960X0.080000*%
%ADD256R,0.025000X0.080000*%
%ADD257R,0.024950X0.080030*%
%ADD258R,0.024940X0.080030*%
%ADD259R,0.025010X0.079970*%
%ADD260R,0.024960X0.079970*%
%ADD261R,0.025000X0.079970*%
%ADD262R,0.025020X0.079970*%
%ADD263R,0.024940X0.079970*%
%ADD264R,0.024950X0.079970*%
%ADD265R,0.024940X0.080020*%
%ADD266R,0.024950X0.080020*%
%ADD267R,0.025010X0.080000*%
%ADD268R,0.024940X0.080000*%
%ADD269R,0.024950X0.080000*%
%ADD270R,0.025020X0.080010*%
%ADD271R,0.025010X0.080010*%
%ADD272R,0.024950X0.080010*%
%ADD273R,0.025000X0.080010*%
%ADD274R,0.024960X0.080010*%
%ADD275R,0.025100X0.080030*%
%ADD276R,0.039980X0.050030*%
%ADD277R,0.039990X0.050030*%
%ADD278R,0.040040X0.050030*%
%ADD279R,0.040040X0.050010*%
%ADD280R,0.039980X0.050010*%
%ADD281R,0.039990X0.050010*%
%ADD282R,0.039990X0.049970*%
%ADD283R,0.039980X0.049970*%
%ADD284R,0.040030X0.049970*%
%ADD285R,0.039990X0.050020*%
%ADD286R,0.039980X0.050020*%
%ADD287R,0.040030X0.050020*%
%ADD288R,0.040040X0.050020*%
%ADD289R,0.040020X0.050020*%
%ADD290R,0.040040X0.049970*%
%ADD291R,0.040020X0.049970*%
%ADD292R,0.040030X0.050010*%
%ADD293R,0.039970X0.050020*%
%ADD294R,0.040040X0.050000*%
%ADD295R,0.039990X0.050000*%
%ADD296R,0.039970X0.050030*%
%ADD297R,0.039980X0.050000*%
%ADD298R,0.040050X0.050000*%
%ADD299R,0.040000X0.049970*%
%ADD300R,0.039900X0.049970*%
%ADD301R,0.040100X0.049980*%
%ADD302R,0.040100X0.050020*%
%ADD303R,0.039900X0.050020*%
%ADD304R,0.040000X0.050020*%
%ADD305R,0.040000X0.050030*%
%ADD306R,0.040100X0.050010*%
%ADD307R,0.040000X0.050010*%
%ADD308R,0.040000X0.049980*%
%ADD309R,0.040100X0.049970*%
%ADD310R,0.049970X0.039990*%
%ADD311R,0.050010X0.039980*%
%ADD312R,0.049970X0.040040*%
%ADD313R,0.125000X0.094030*%
%ADD314R,0.114960X0.102000*%
%ADD315R,0.114960X0.102040*%
%ADD316R,0.074978X0.125050*%
%ADD317R,0.074977X0.125000*%
%ADD318R,0.075034X0.125000*%
%ADD319R,0.075030X0.125050*%
%ADD320R,0.075050X0.125050*%
%ADD321R,0.075050X0.125000*%
%ADD322R,0.125000X0.075030*%
%ADD323R,0.125000X0.074990*%
%ADD324R,0.094020X0.125050*%
%ADD325R,0.093970X0.125050*%
%ADD326R,0.094020X0.125000*%
%ADD327R,0.094010X0.125000*%
%ADD328R,0.094100X0.125000*%
%ADD329R,0.093900X0.125050*%
%ADD330R,0.094000X0.125050*%
%ADD331R,0.095000X0.075030*%
%ADD332R,0.094980X0.075030*%
%ADD333R,0.094980X0.074970*%
%ADD334R,0.095000X0.074970*%
%ADD335R,0.095000X0.075040*%
%ADD336R,0.095000X0.074980*%
%ADD337R,0.095000X0.074990*%
%ADD338R,0.095050X0.075030*%
%ADD339R,0.095040X0.074980*%
%ADD340R,0.094990X0.074990*%
%ADD341R,0.094990X0.075030*%
%ADD342R,0.095000X0.075050*%
%ADD343R,0.095040X0.075030*%
%ADD344R,0.095060X0.074980*%
%ADD345R,0.075050X0.095010*%
%ADD346R,0.075050X0.095050*%
%ADD347R,0.074980X0.094990*%
%ADD348R,0.075030X0.095100*%
%ADD349R,0.075030X0.095020*%
%ADD350R,0.074980X0.095100*%
%ADD351R,0.075040X0.095020*%
%ADD352R,0.074970X0.094990*%
%ADD353R,0.075020X0.095050*%
%ADD354R,0.074970X0.094980*%
%ADD355R,0.075040X0.094980*%
%ADD356R,0.075050X0.095100*%
%ADD357R,0.075100X0.095000*%
%ADD358R,0.075100X0.095060*%
%ADD359R,0.074900X0.095040*%
%ADD360R,0.074900X0.095000*%
%ADD361R,0.075000X0.095060*%
%ADD362R,0.115020X0.050000*%
%ADD363R,0.115010X0.050000*%
%ADD364R,0.049960X0.115020*%
%ADD365R,0.050030X0.115010*%
%ADD366R,0.049960X0.115010*%
%ADD367R,0.050000X0.115010*%
%ADD368R,0.145030X0.050030*%
%ADD369R,0.145020X0.050030*%
%ADD370R,0.145020X0.050010*%
%ADD371R,0.145030X0.050010*%
%ADD372R,0.145100X0.049960*%
%ADD373R,0.145000X0.049960*%
%ADD374R,0.050021X0.145070*%
%ADD375R,0.050021X0.145030*%
%ADD376R,0.049960X0.145020*%
%ADD377R,0.049960X0.145080*%
%ADD378R,0.050020X0.145010*%
%ADD379R,0.050020X0.145080*%
%ADD380R,0.050030X0.145020*%
%ADD381R,0.049970X0.145020*%
%ADD382R,0.049970X0.145030*%
%ADD383R,0.050030X0.145030*%
%ADD384R,0.050030X0.145010*%
%ADD385R,0.049960X0.145000*%
%ADD386R,0.050030X0.145100*%
%ADD387R,0.050030X0.145000*%
%ADD388R,0.048990X0.070000*%
%ADD389R,0.049000X0.070000*%
%ADD390R,0.049000X0.069990*%
%ADD391R,0.069990X0.049000*%
%ADD392R,0.070040X0.049000*%
%ADD393R,0.070000X0.049050*%
%ADD394R,0.070100X0.049050*%
%ADD395R,0.070100X0.049000*%
%ADD396R,0.070000X0.049000*%
%ADD397R,0.070000X0.048980*%
%ADD398R,0.014980X0.030000*%
%ADD399R,0.015000X0.030000*%
%ADD400R,0.015000X0.030010*%
%ADD401R,0.030000X0.015000*%
%ADD402R,0.030000X0.015030*%
%ADD403R,0.100000X0.018010*%
%ADD404R,0.100000X0.018020*%
%ADD405R,0.100000X0.017990*%
%ADD406R,0.100000X0.018000*%
%ADD407R,0.100000X0.017960*%
%ADD408R,0.100040X0.018000*%
%ADD409R,0.100040X0.018010*%
%ADD410R,0.100040X0.017960*%
%ADD411R,0.100040X0.018020*%
%ADD412R,0.100040X0.017990*%
%ADD413R,0.017960X0.100050*%
%ADD414R,0.017950X0.100050*%
%ADD415R,0.018000X0.100050*%
%ADD416R,0.018020X0.100050*%
%ADD417R,0.018010X0.100050*%
%ADD418R,0.105040X0.025020*%
%ADD419R,0.105040X0.025010*%
%ADD420R,0.104980X0.025020*%
%ADD421R,0.104970X0.025020*%
%ADD422R,0.104980X0.025000*%
%ADD423R,0.104970X0.025000*%
%ADD424R,0.105040X0.025000*%
%ADD425R,0.104980X0.025010*%
%ADD426R,0.104970X0.025010*%
%ADD427R,0.105030X0.025010*%
%ADD428R,0.105030X0.025020*%
%ADD429R,0.105030X0.025000*%
%ADD430R,0.105000X0.025000*%
%ADD431R,0.105000X0.024960*%
%ADD432R,0.105000X0.025020*%
%ADD433R,0.105000X0.025010*%
%ADD434R,0.024960X0.105040*%
%ADD435R,0.025000X0.105040*%
%ADD436R,0.025020X0.105040*%
%ADD437R,0.025000X0.105030*%
%ADD438R,0.025020X0.105030*%
%ADD439R,0.024960X0.105030*%
%ADD440R,0.025010X0.105030*%
%ADD441R,0.025010X0.105040*%
%ADD442R,0.024950X0.105040*%
%ADD443R,0.025020X0.104990*%
%ADD444R,0.024950X0.104990*%
%ADD445R,0.025010X0.104990*%
%ADD446R,0.025010X0.104980*%
%ADD447R,0.025000X0.104980*%
%ADD448R,0.025020X0.104980*%
%ADD449R,0.024950X0.104980*%
%ADD450R,0.024960X0.104980*%
%ADD451R,0.024960X0.104990*%
%ADD452R,0.025000X0.104990*%
%ADD453R,0.025010X0.104970*%
%ADD454R,0.025020X0.104970*%
%ADD455R,0.025000X0.104970*%
%ADD456R,0.025020X0.105020*%
%ADD457R,0.025010X0.105020*%
%ADD458R,0.025000X0.105020*%
%ADD459R,0.025000X0.105000*%
%ADD460R,0.025100X0.105000*%
%ADD461R,0.025000X0.105060*%
%ADD462R,0.025100X0.105060*%
%ADD463R,0.025100X0.105030*%
%ADD464R,0.025000X0.105050*%
%ADD465R,0.025100X0.105050*%
%ADD466R,0.025100X0.104980*%
%ADD467R,0.050020X0.060010*%
%ADD468R,0.050020X0.060000*%
%ADD469R,0.050020X0.060020*%
%ADD470R,0.049960X0.060020*%
%LNAmiga 1200 Rev1D1 top soldermask_0*%
%LPD*%
G54D16*
X80406Y60088D03*
G54D17*
X80276Y96095D03*
G54D16*
X80406Y66089D03*
G54D335*
X79926Y71940D03*
G54D17*
X80276Y96876D03*
Y70670D03*
Y69890D03*
G54D16*
X80406Y53087D03*
Y59088D03*
G54D17*
X14701Y55447D03*
G54D52*
X43693Y55287D03*
X42693D03*
G54D16*
X16201Y55447D03*
G54D309*
X117219Y86123D03*
G54D275*
X117159Y98346D03*
G54D40*
X117199Y108338D03*
G54D275*
X117159Y91844D03*
G54D306*
X117219Y84123D03*
G54D16*
X13951Y63949D03*
G54D52*
X50504Y64289D03*
X49603D03*
G54D16*
X15451Y63949D03*
G54D367*
X100708Y91194D03*
G54D52*
X100608Y105398D03*
G54D367*
X100708Y92855D03*
G54D37*
X100768Y107218D03*
G36*
X99628Y81508D02*
G01X100628D01*
Y81496D01*
X99628D01*
G37*
G36*
Y39790D02*
G01X100628D01*
Y39778D01*
X99628D01*
G37*
G36*
Y53302D02*
G01X100628D01*
Y53291D01*
X99628D01*
G37*
G36*
X99634Y52763D02*
G01X100628D01*
Y52751D01*
X99622D01*
G37*
G54D54*
X100608Y104397D03*
G54D16*
X39403Y40584D03*
G54D78*
X108479Y107718D03*
G54D422*
X42323Y95445D03*
Y97946D03*
G54D425*
Y98446D03*
Y97446D03*
Y96945D03*
G54D108*
X42503Y102467D03*
G54D35*
X42913Y108338D03*
G54D425*
X42323Y96446D03*
G54D108*
X42503Y101127D03*
G54D420*
X42323Y94945D03*
Y95945D03*
G54D45*
X24802Y101417D03*
X24241Y105416D03*
G54D52*
X24391Y92385D03*
Y93385D03*
G54D317*
X24982Y94695D03*
G54D50*
X66105Y81883D03*
X67105D03*
G54D410*
X62405Y81902D03*
G54D228*
X33672Y81823D03*
G54D25*
X7500Y82093D03*
G54D407*
X50394Y81902D03*
G54D224*
X45133Y81823D03*
G54D25*
X5770Y82093D03*
G54D314*
X89107Y80692D03*
G54D236*
X72955Y99946D03*
X79456D03*
G54D50*
X52704Y99696D03*
X53704D03*
G54D72*
X136941Y107218D03*
G36*
X73936Y46595D02*
G01X74936D01*
Y46455D01*
X73936D01*
Y46595D01*
G37*
G54D225*
X43933Y46585D03*
G54D16*
X61405Y101496D03*
G54D58*
X96807Y102497D03*
G54D295*
X86287Y102257D03*
X85486D03*
G54D127*
X99808Y102367D03*
X82706Y102227D03*
G54D25*
X94257Y102047D03*
G54D28*
X92297D03*
G54D297*
X86986Y102257D03*
X87787D03*
G54D54*
X104609Y104397D03*
G54D359*
X104408Y88064D03*
G54D360*
Y86723D03*
G54D77*
X104568Y107718D03*
G54D52*
X104609Y105398D03*
G36*
X127711Y110973D02*
G01X126710D01*
Y110984D01*
X127711D01*
G37*
G54D328*
X126910Y85793D03*
G36*
X134436Y54622D02*
G01X124654D01*
X124604Y54672D01*
X134386D01*
G37*
G54D240*
X112909Y96095D03*
G54D17*
X17901Y40384D03*
G54D16*
X17701Y43085D03*
G54D335*
X37272Y73891D03*
G54D282*
X61815Y88124D03*
G54D52*
X61904Y89194D03*
G54D32*
X86607Y81292D03*
G54D253*
X58804Y41284D03*
G54D36*
X71715Y107218D03*
G54D54*
X120810Y104397D03*
G54D52*
Y105398D03*
G54D335*
X120440Y88394D03*
G54D37*
X120470Y108338D03*
G54D259*
X61305Y50486D03*
G54D91*
X61404Y53086D03*
G54D244*
X34202Y93945D03*
G54D52*
X34503Y104498D03*
Y105498D03*
G54D362*
X34632Y102297D03*
G54D254*
X34202Y100447D03*
G54D81*
X33802Y46985D03*
G54D222*
X32472Y47085D03*
G54D57*
X25101Y47086D03*
G54D418*
X44523Y95345D03*
G54D125*
X62405Y95425D03*
G54D428*
X48074Y95345D03*
G54D125*
X63505Y95425D03*
G54D352*
X61405D03*
G54D337*
X63935Y85493D03*
G54D340*
X65275D03*
G54D52*
X62294Y85693D03*
G54D50*
X67805Y85793D03*
G54D130*
X68805Y85423D03*
G54D111*
X66805Y85923D03*
G54D226*
X33672Y86324D03*
G54D16*
X22232Y86093D03*
G54D322*
X31192Y85873D03*
G54D16*
X23021Y86093D03*
G54D375*
X8900Y75671D03*
G54D51*
X16801Y76091D03*
G54D312*
X19131Y76171D03*
G54D356*
X97207Y105767D03*
X87907D03*
G54D52*
X82196Y105988D03*
G54D134*
X86807Y105767D03*
G54D107*
X98908Y91965D03*
G54D221*
X97638Y91995D03*
G54D216*
X90177D03*
G54D335*
X51734Y87694D03*
G54D416*
X52144Y83973D03*
G54D355*
X69105Y97966D03*
G54D354*
X65705D03*
G54D122*
X68005D03*
G54D119*
X66705D03*
G54D108*
X39503Y101127D03*
X41003D03*
G54D26*
X26422Y103297D03*
X28382D03*
G54D277*
Y93025D03*
G54D221*
X26902Y94645D03*
Y94145D03*
G54D280*
X28782Y92154D03*
G54D279*
X27982D03*
G54D222*
X26902Y95145D03*
G54D320*
X27052Y92485D03*
G54D221*
X26902Y95645D03*
G54D101*
X28062Y108748D03*
G54D100*
X26582Y107178D03*
G54D95*
X27702Y98356D03*
G54D319*
X25312Y92485D03*
G54D221*
X29102Y94645D03*
Y94145D03*
G54D99*
X29542Y107178D03*
G54D222*
X29102Y95145D03*
G54D221*
Y95645D03*
G54D53*
X15101Y72491D03*
X16001D03*
G54D417*
X52464Y71971D03*
G54D416*
X52774D03*
G54D413*
X53094D03*
G54D416*
X52144D03*
G54D417*
X53404D03*
G54D416*
X53724D03*
G54D415*
X54664D03*
G54D417*
X51514D03*
G54D413*
X54984D03*
G54D417*
X55294D03*
G54D415*
X51834D03*
X56244D03*
G54D416*
X55924D03*
G54D417*
X55614D03*
X54354D03*
X54034D03*
G54D16*
X16201Y67450D03*
G54D17*
X14701D03*
G54D18*
X44403Y40584D03*
G54D459*
X102608Y102917D03*
G54D137*
X102708Y92465D03*
Y91125D03*
G54D52*
X102598Y105388D03*
G54D464*
X102808Y85013D03*
G54D437*
Y82562D03*
G36*
X103128Y52751D02*
G01X102128D01*
Y52763D01*
X103128D01*
G37*
G54D464*
X102808Y86663D03*
G54D461*
X102608Y100466D03*
G36*
X103128Y53291D02*
G01X102128D01*
Y53302D01*
X103128D01*
G37*
G54D54*
X102598Y104387D03*
G54D437*
X102808Y89114D03*
G54D81*
X8800Y43885D03*
G54D47*
X8900Y40904D03*
G54D16*
X16701Y43085D03*
X16901Y40384D03*
G54D87*
X4860Y42044D03*
G54D17*
X15701Y43085D03*
X14701D03*
G54D16*
X13701D03*
X12701D03*
X12900Y40384D03*
X13901D03*
G54D18*
X14901D03*
G54D16*
X15901D03*
G54D80*
X5700Y50786D03*
G54D16*
X16201Y53447D03*
X13951Y54947D03*
X15451Y52947D03*
X16201Y52446D03*
G54D17*
X14701Y54447D03*
G54D16*
X15451Y54947D03*
X16201Y54447D03*
G54D79*
X15451Y50196D03*
G54D16*
X13951Y51946D03*
X15451Y53947D03*
G54D17*
X14701Y53447D03*
G54D16*
X13951Y52947D03*
Y53947D03*
X15451Y51946D03*
G54D17*
X14701Y52446D03*
G36*
X75616Y50736D02*
G01X75756D01*
Y49736D01*
X75616D01*
Y50736D01*
G37*
G54D108*
X94507Y85623D03*
G54D109*
Y86964D03*
G54D342*
X65635Y77792D03*
G54D50*
X66995Y72781D03*
X68295D03*
X66795Y75181D03*
X66095Y72781D03*
G54D52*
X68495Y76381D03*
X66795Y76181D03*
G54D64*
X68495Y75381D03*
G54D50*
X65895Y75181D03*
G54D342*
X66975Y77792D03*
G54D50*
X66095Y73781D03*
X66995D03*
G54D52*
X65895Y76181D03*
G54D50*
X68295Y73781D03*
G54D444*
X50104Y45655D03*
G54D445*
X49604D03*
G54D449*
X50104Y40354D03*
G54D331*
X49133Y44385D03*
G54D441*
X49604Y42804D03*
G54D446*
Y40354D03*
G54D442*
X50104Y42804D03*
G54D338*
X50474Y44385D03*
G54D448*
X50604Y40354D03*
G54D443*
Y45655D03*
G54D436*
Y42804D03*
G54D447*
X52604Y40354D03*
G54D446*
X52104D03*
G54D450*
X51604D03*
G54D446*
X51104D03*
G54D435*
X52604Y42804D03*
G54D441*
X52104D03*
G54D445*
X51104Y45655D03*
G54D441*
Y42804D03*
G54D434*
X51604D03*
G54D451*
Y45655D03*
G54D445*
X52104D03*
G54D452*
X52604D03*
G54D19*
X63405Y66089D03*
G54D16*
X58804D03*
G54D56*
X52994Y68680D03*
G54D139*
X62605Y71090D03*
G54D52*
X49394Y69080D03*
X48593D03*
G54D16*
X62405Y66089D03*
X61405D03*
X52804D03*
G54D64*
X50004Y66589D03*
G54D52*
Y65589D03*
X52994Y67680D03*
X49394Y68080D03*
X48593D03*
G54D96*
X63535Y69140D03*
G54D17*
X20701Y43085D03*
G54D16*
X19701D03*
X18701D03*
G54D18*
X21701D03*
G54D57*
X29302Y43285D03*
G54D248*
X44403Y79092D03*
X53304Y90294D03*
G54D456*
X87507Y73391D03*
X83006D03*
G54D458*
X83506D03*
G54D457*
X84006D03*
X84507D03*
G54D248*
X81406Y73291D03*
G54D457*
X85006Y73391D03*
G54D243*
X80906Y73291D03*
G54D456*
X85506Y73391D03*
G54D458*
X86007D03*
G54D457*
X86506D03*
G54D244*
X80406Y73291D03*
G54D243*
X81906D03*
G54D457*
X87007Y73391D03*
G54D250*
X38403Y60158D03*
G54D52*
X91007Y105398D03*
G54D54*
Y104397D03*
X92997Y104387D03*
G54D58*
X99598Y105388D03*
G54D68*
X95997Y104387D03*
G54D67*
X94997D03*
G54D54*
X91997D03*
G54D117*
X97207Y104427D03*
G54D52*
X92997Y105388D03*
G54D54*
X93997Y104387D03*
X98598D03*
G54D52*
X91997Y105388D03*
G54D68*
X99598Y104387D03*
G54D52*
X98598Y105388D03*
G54D58*
X95997D03*
G54D52*
X94997D03*
X93997D03*
G54D441*
X46403Y42804D03*
X45903D03*
X45403D03*
G54D446*
Y40354D03*
X45903D03*
X46403D03*
G54D331*
X45933Y44485D03*
G54D337*
Y45985D03*
G54D435*
X46904Y42804D03*
G54D447*
Y40354D03*
G54D337*
X47274Y45985D03*
G54D331*
Y44485D03*
G54D436*
X47403Y42804D03*
G54D441*
X47903D03*
G54D448*
X47403Y40354D03*
X48404D03*
G54D446*
X47903D03*
G54D436*
X48404Y42804D03*
G54D52*
X50293Y86384D03*
G54D221*
X45133Y86324D03*
G54D469*
X47803Y89974D03*
G54D52*
X48193Y88594D03*
X49193D03*
G54D26*
X51504Y88894D03*
G54D221*
X45133Y89824D03*
G54D222*
Y89324D03*
G54D469*
X48394Y89974D03*
G54D221*
X45133Y86823D03*
G54D470*
X48984Y89974D03*
G54D222*
X45133Y87323D03*
G54D224*
Y87824D03*
G54D222*
Y88324D03*
Y88824D03*
G54D16*
X13951Y55947D03*
G54D440*
X19401Y56637D03*
G54D16*
X13951Y57948D03*
G54D17*
X14701Y57447D03*
G54D16*
X13951Y56947D03*
G54D17*
X14701Y56448D03*
G54D16*
X15451Y55947D03*
X16201Y56448D03*
X15451Y56947D03*
X16201Y57447D03*
X15451Y57948D03*
X16201Y58448D03*
G54D17*
X14701D03*
G54D310*
X19131Y76971D03*
G54D332*
X17931Y77992D03*
G54D50*
X15701Y78082D03*
G54D25*
X28902Y77291D03*
G54D50*
X16701Y78082D03*
G54D331*
X19271Y77992D03*
G54D90*
X23021Y76652D03*
G54D16*
X22232Y77432D03*
G54D311*
X18261Y76572D03*
G54D16*
X23021Y77432D03*
Y78222D03*
X22232Y76652D03*
Y78222D03*
G54D25*
X10290Y87984D03*
G54D26*
X8910D03*
G54D243*
X75906Y88194D03*
G54D248*
X78906D03*
G54D243*
X79406D03*
X79906D03*
X75406D03*
G54D249*
X74906D03*
G54D257*
X76406D03*
G54D243*
X72906D03*
G54D257*
X73406D03*
G54D248*
X73906D03*
G54D244*
X74406D03*
G54D243*
X78406D03*
G54D249*
X77906D03*
G54D244*
X72405D03*
G54D243*
X77406D03*
G54D244*
X76906D03*
G54D254*
X76206Y105198D03*
G54D32*
X76076Y107218D03*
G54D58*
X33602Y104498D03*
Y105498D03*
G54D363*
X32972Y102297D03*
G54D108*
X29902Y103227D03*
G54D111*
X31002D03*
G54D348*
X32602Y104327D03*
X29902Y104567D03*
G54D134*
X31002D03*
G54D108*
X32602Y105668D03*
G54D75*
X32012Y107718D03*
G54D350*
X43203Y104327D03*
G54D52*
X48004Y104498D03*
X44203D03*
G54D348*
X45203Y104327D03*
G54D52*
X47103Y104498D03*
X46203D03*
G54D436*
X21401Y59088D03*
X20901D03*
G54D438*
Y56637D03*
X21401Y62638D03*
G54D437*
X19901D03*
G54D440*
X20401D03*
G54D438*
X21401Y56637D03*
G54D437*
X19901D03*
G54D441*
X20401Y59088D03*
G54D440*
Y56637D03*
G54D435*
X19901Y59088D03*
G54D438*
X20901Y62638D03*
G54D440*
X21901D03*
Y56637D03*
G54D441*
Y59088D03*
G54D437*
X22402Y62638D03*
G54D440*
X22901D03*
G54D438*
X23401D03*
G54D437*
X22402Y56637D03*
G54D440*
X22901D03*
X23902D03*
G54D438*
X23401D03*
G54D435*
X22402Y59088D03*
G54D441*
X22901D03*
G54D436*
X23401D03*
G54D441*
X23902D03*
G54D440*
Y62638D03*
G54D335*
X123770Y82793D03*
X125110D03*
G54D84*
X126410Y99596D03*
G54D78*
X125920Y107718D03*
G54D212*
X141001Y73691D03*
G54D77*
X139681Y107738D03*
G54D78*
X144050D03*
G54D84*
X137710Y104998D03*
G54D243*
X78406Y73291D03*
G54D248*
X78906D03*
G54D249*
X77906D03*
G54D243*
X77406D03*
G54D244*
X76906D03*
G54D257*
X76406D03*
G54D243*
X79406D03*
X75906D03*
X79906D03*
G54D413*
X56874Y83973D03*
G54D32*
X36372Y108338D03*
G54D33*
X37463D03*
G54D52*
X36502Y105498D03*
Y104498D03*
G54D134*
X35502Y104327D03*
G54D133*
X37502D03*
G54D108*
Y105668D03*
G54D32*
X38012Y107218D03*
X35833D03*
X36923D03*
X34743D03*
G54D111*
X35502Y105668D03*
G54D32*
X35282Y108338D03*
X38553D03*
G54D52*
X38503Y105498D03*
Y104498D03*
G54D423*
X39873Y95445D03*
G54D222*
X37453Y96196D03*
G54D225*
Y96695D03*
G54D222*
Y94695D03*
G54D426*
X39873Y96945D03*
G54D222*
X37453Y95695D03*
G54D243*
X36203Y93945D03*
G54D249*
X36702D03*
G54D222*
X37453Y95195D03*
G54D421*
X39873Y95945D03*
G54D426*
Y96446D03*
G54D421*
Y94945D03*
G54D243*
X35702Y93945D03*
G54D258*
X35202D03*
G54D244*
X34702D03*
G54D221*
X37453Y97195D03*
G54D426*
X39873Y97446D03*
G54D423*
Y97946D03*
G54D426*
Y98446D03*
G54D222*
X37453Y99696D03*
Y97696D03*
G54D221*
Y98196D03*
G54D254*
X34702Y100447D03*
G54D268*
X35202D03*
G54D255*
X36702D03*
G54D221*
X37453Y98696D03*
G54D224*
Y99196D03*
G54D267*
X36203Y100447D03*
X35702D03*
G54D463*
X101808Y89114D03*
G54D464*
X100808Y86663D03*
G54D437*
X102308Y89114D03*
G54D464*
Y85013D03*
Y86663D03*
G54D437*
X101308Y89114D03*
X100808D03*
G54D465*
X101808Y86663D03*
G54D437*
X102308Y82562D03*
G54D463*
X101808D03*
G54D437*
X101308D03*
X100808D03*
G54D464*
Y85013D03*
X101308Y86663D03*
Y85013D03*
G54D465*
X101808D03*
G54D464*
X106408Y93065D03*
X105908D03*
G54D402*
X105179Y91294D03*
G54D148*
X105528D03*
G54D372*
X105928Y87294D03*
G54D64*
X105909Y83393D03*
G54D52*
Y84393D03*
G36*
X105379Y91284D02*
G01X105668D01*
Y91295D01*
X105379D01*
Y91284D01*
G37*
G54D149*
X105524Y91289D03*
G54D393*
X105379Y90984D03*
G54D465*
X104908Y93065D03*
G54D147*
X105524Y91289D03*
G54D464*
X105409Y93065D03*
G54D397*
X105379Y91594D03*
G54D464*
X106909Y93065D03*
G54D465*
X107408D03*
G54D464*
X107909D03*
G54D402*
X107639Y91294D03*
G54D30*
X108909Y82893D03*
G54D92*
X108509Y84793D03*
G54D29*
X107908Y82893D03*
G54D393*
X107439Y90984D03*
G54D147*
X107284Y91289D03*
G54D373*
X108089Y87294D03*
G54D153*
X107288Y91294D03*
G54D149*
X107284Y91289D03*
G36*
X107139Y91284D02*
G01X107429D01*
Y91295D01*
X107139D01*
Y91284D01*
G37*
G54D397*
X107439Y91594D03*
G54D252*
X59304Y41284D03*
G54D251*
X59804D03*
G54D250*
X61805D03*
G54D251*
X62304D03*
G54D252*
X62805D03*
G54D251*
X63305D03*
X61305D03*
X63805D03*
G54D222*
X64405Y41885D03*
G54D250*
X60804Y41284D03*
G54D223*
X64405Y42384D03*
G54D222*
Y42884D03*
G54D252*
X60305Y41284D03*
G54D16*
X22232Y93175D03*
X23021D03*
Y92395D03*
X22232D03*
G54D383*
X16701Y91314D03*
G54D382*
X19801D03*
G54D381*
Y93475D03*
G54D16*
X22232Y91604D03*
X23021D03*
Y90814D03*
X22232D03*
G54D318*
X23241Y94695D03*
G54D380*
X16701Y93475D03*
G54D213*
X90177Y94495D03*
G54D216*
Y93995D03*
G54D215*
Y93495D03*
G54D213*
Y92995D03*
G54D216*
Y97495D03*
G54D238*
Y96996D03*
G54D213*
Y96496D03*
G54D215*
Y95995D03*
G54D213*
Y95495D03*
Y94995D03*
G54D214*
Y92495D03*
G54D251*
X90907Y98226D03*
X91407D03*
G54D253*
X91907D03*
G54D16*
X87357Y96095D03*
Y96876D03*
G54D447*
X105409Y95515D03*
G54D52*
X106909Y96795D03*
Y97796D03*
G54D447*
X105908Y95515D03*
X106408D03*
X106909D03*
G54D466*
X107408D03*
G54D447*
X107909D03*
G54D466*
X104908D03*
G54D17*
X108809Y100797D03*
G54D52*
Y105398D03*
G54D54*
X106809Y104397D03*
X107809D03*
G54D17*
X108809Y101796D03*
G54D16*
X107808D03*
X106808Y100797D03*
G54D52*
X105598Y105388D03*
G54D54*
X108809Y104397D03*
X105598Y104387D03*
G54D16*
X107808Y100797D03*
G54D52*
X107809Y105398D03*
X106809D03*
G54D16*
X106808Y101796D03*
G54D37*
X118830Y107218D03*
G54D52*
X118810Y105398D03*
G54D16*
X118809Y100797D03*
Y101796D03*
G54D54*
X118810Y104397D03*
G54D32*
X83607Y81292D03*
G54D388*
X83896Y101366D03*
G54D398*
X84206Y101166D03*
G54D144*
X84201Y101512D03*
G54D389*
X84507Y101366D03*
G54D36*
X85107Y94295D03*
G36*
X84197Y101367D02*
G01X84206D01*
Y101657D01*
X84197D01*
Y101367D01*
G37*
G54D17*
X84996Y96876D03*
Y96095D03*
G54D22*
X84206D03*
G54D145*
Y101517D03*
G54D16*
X85776Y96876D03*
G54D22*
X84206D03*
G54D20*
X86567D03*
Y96095D03*
G54D146*
X84201Y101512D03*
G54D16*
X85776Y96095D03*
G54D110*
X61405Y96766D03*
G54D17*
X64405Y66089D03*
G54D16*
X72406D03*
X71405D03*
X70405D03*
X69405D03*
X72406Y69890D03*
G54D19*
X73186D03*
G54D338*
X72575Y67390D03*
G54D18*
X65405Y66089D03*
G54D20*
X66405D03*
G54D343*
X71235Y67390D03*
G54D16*
X72406Y70670D03*
G54D19*
X73186D03*
G54D16*
X68405Y66089D03*
X67405D03*
G54D17*
X73406D03*
G54D137*
X111009Y95165D03*
G54D84*
X110309Y92094D03*
G54D29*
X109909Y82893D03*
G54D31*
X110909D03*
G54D29*
X111909D03*
G54D16*
X111509Y84793D03*
X110508D03*
G54D23*
X109509D03*
G54D361*
X111009Y93825D03*
G54D240*
X112909Y95095D03*
G54D208*
X113399Y88094D03*
G54D52*
X113409Y87083D03*
G54D60*
Y86093D03*
G54D242*
X112909Y95595D03*
G54D241*
Y94595D03*
G54D239*
Y92595D03*
G54D240*
Y94095D03*
G54D64*
X113409Y83783D03*
G54D70*
X113399Y84693D03*
G54D239*
X112909Y93095D03*
G54D240*
Y93595D03*
G36*
X76636Y42035D02*
G01X76776D01*
Y41034D01*
X76636D01*
Y42035D01*
G37*
G36*
X76376D02*
G01X76516D01*
Y41034D01*
X76376D01*
Y42035D01*
G37*
G36*
X76126D02*
G01X76266D01*
Y41034D01*
X76126D01*
Y42035D01*
G37*
G54D83*
X70505Y42384D03*
G36*
X75866Y42035D02*
G01X76006D01*
Y41034D01*
X75866D01*
Y42035D01*
G37*
G36*
X73936Y42234D02*
G01X74936D01*
Y42094D01*
X73936D01*
Y42234D01*
G37*
G36*
Y42495D02*
G01X74936D01*
Y42355D01*
X73936D01*
Y42495D01*
G37*
G36*
Y42755D02*
G01X74936D01*
Y42615D01*
X73936D01*
Y42755D01*
G37*
G36*
X75096Y42035D02*
G01X75236D01*
Y41034D01*
X75096D01*
Y42035D01*
G37*
G36*
X73936Y43005D02*
G01X74936D01*
Y42865D01*
X73936D01*
Y43005D01*
G37*
G36*
X75356Y42035D02*
G01X75496D01*
Y41034D01*
X75356D01*
Y42035D01*
G37*
G36*
X75616D02*
G01X75756D01*
Y41034D01*
X75616D01*
Y42035D01*
G37*
G36*
X79966D02*
G01X80106D01*
Y41034D01*
X79966D01*
Y42035D01*
G37*
G36*
X77916D02*
G01X78056D01*
Y41034D01*
X77916D01*
Y42035D01*
G37*
G36*
X78176D02*
G01X78316D01*
Y41034D01*
X78176D01*
Y42035D01*
G37*
G36*
X78426D02*
G01X78566D01*
Y41034D01*
X78426D01*
Y42035D01*
G37*
G36*
X78686D02*
G01X78826D01*
Y41034D01*
X78686D01*
Y42035D01*
G37*
G36*
X78936D02*
G01X79076D01*
Y41034D01*
X78936D01*
Y42035D01*
G37*
G36*
X79196D02*
G01X79336D01*
Y41034D01*
X79196D01*
Y42035D01*
G37*
G36*
X79456D02*
G01X79596D01*
Y41034D01*
X79456D01*
Y42035D01*
G37*
G36*
X76896D02*
G01X77036D01*
Y41034D01*
X76896D01*
Y42035D01*
G37*
G36*
X77146D02*
G01X77286D01*
Y41034D01*
X77146D01*
Y42035D01*
G37*
G36*
X77406D02*
G01X77546D01*
Y41034D01*
X77406D01*
Y42035D01*
G37*
G36*
X77656D02*
G01X77796D01*
Y41034D01*
X77656D01*
Y42035D01*
G37*
G36*
X79706D02*
G01X79846D01*
Y41034D01*
X79706D01*
Y42035D01*
G37*
G54D398*
X84206Y103627D03*
G54D146*
X84201Y103272D03*
G54D145*
X84206Y103277D03*
G54D127*
X82706Y103567D03*
G54D52*
X82196Y104988D03*
X85796Y105388D03*
G54D294*
X85886Y103126D03*
G36*
X84197Y103127D02*
G01X84206D01*
Y103417D01*
X84197D01*
Y103127D01*
G37*
G54D54*
X85796Y104387D03*
G54D144*
X84201Y103272D03*
G54D389*
X84507Y103427D03*
G54D388*
X83896D03*
G54D52*
X88997Y105388D03*
G54D117*
X87907Y104427D03*
G54D54*
X88997Y104387D03*
G54D68*
X89997D03*
G54D58*
Y105388D03*
G54D111*
X86807Y104427D03*
G54D298*
X87387Y103126D03*
G54D16*
X9600Y87004D03*
X6500Y87184D03*
X7500D03*
Y86493D03*
G54D26*
X5850D03*
G54D384*
X15701Y87073D03*
G54D366*
X18301Y86923D03*
G54D16*
X10290Y87004D03*
G54D377*
X12400Y87054D03*
G54D52*
X8910Y87004D03*
G54D365*
X20301Y87024D03*
G54D228*
X33672Y87824D03*
G54D287*
X26782Y87453D03*
G54D285*
X30782D03*
X29982D03*
G54D286*
X28782D03*
X25982D03*
G54D288*
X27982D03*
G54D226*
X33672Y86823D03*
G54D227*
Y87323D03*
G54D16*
X23021Y86883D03*
X22232D03*
Y87674D03*
X23021D03*
G54D378*
X10400Y89714D03*
G54D282*
X26382Y90324D03*
G54D317*
X8030Y90244D03*
X6290D03*
G54D282*
X28382Y90324D03*
G54D50*
X16001Y73491D03*
G54D276*
X12010Y73421D03*
G54D278*
X13311D03*
G54D277*
X14111D03*
G54D276*
X13711Y72550D03*
G54D50*
X15101Y73491D03*
G54D277*
X11611Y72550D03*
G54D278*
X11210Y73421D03*
G54D335*
X35932Y73891D03*
G54D374*
X8900Y73511D03*
G54D404*
X50394Y73401D03*
G54D403*
Y73091D03*
G54D407*
Y76551D03*
G54D405*
Y73721D03*
G54D403*
Y76241D03*
Y75921D03*
G54D406*
Y74351D03*
G54D403*
Y76871D03*
G54D404*
Y74031D03*
G54D406*
Y77182D03*
G54D403*
Y77502D03*
Y74661D03*
G54D404*
Y74981D03*
G54D407*
Y75291D03*
Y75611D03*
G54D404*
Y77812D03*
G54D221*
X45133Y79822D03*
G54D403*
X50394Y80012D03*
G54D404*
Y78122D03*
G54D403*
Y80332D03*
G54D404*
Y79702D03*
G54D403*
Y79382D03*
G54D404*
Y79072D03*
G54D222*
X45133Y80322D03*
G54D221*
Y80822D03*
G54D403*
X50394Y81592D03*
Y81272D03*
G54D404*
Y80962D03*
G54D403*
Y80642D03*
G54D221*
X45133Y81322D03*
G54D403*
X50394Y78442D03*
Y78752D03*
G54D16*
X63905Y100696D03*
G54D18*
X62905D03*
G54D21*
X61905D03*
G54D16*
X62405Y101496D03*
G54D321*
X65205Y102897D03*
G54D21*
X64905Y100696D03*
G54D16*
X65905D03*
G54D20*
X66405Y101496D03*
G54D19*
X63405D03*
G54D326*
X65905Y105598D03*
G54D386*
X62905Y105277D03*
G54D17*
X64405Y101496D03*
G54D76*
X63545Y107718D03*
G54D73*
X66265Y107218D03*
G54D387*
X62905Y103117D03*
G54D18*
X65405Y101496D03*
G54D317*
X66945Y102897D03*
G54D17*
X66905Y100696D03*
G54D32*
X66815Y108338D03*
G54D248*
X32702Y93945D03*
G54D217*
X30952Y94695D03*
G54D244*
X31702Y93945D03*
G54D217*
X30952Y95195D03*
Y95695D03*
G54D243*
X33202Y93945D03*
G54D257*
X33702D03*
G54D217*
X30952Y96196D03*
G54D249*
X32202Y93945D03*
G54D220*
X30952Y96695D03*
G54D219*
Y97195D03*
G54D256*
X32702Y100447D03*
G54D218*
X30952Y99196D03*
G54D267*
X33202Y100447D03*
G54D255*
X32202D03*
G54D254*
X31702D03*
G54D269*
X33702D03*
G54D219*
X30952Y98696D03*
G54D217*
Y99696D03*
Y97696D03*
G54D219*
Y98196D03*
G54D222*
X43933Y50586D03*
G54D58*
X46404Y50776D03*
G54D52*
X45403D03*
G54D26*
X29902Y83293D03*
G54D227*
X33672Y83823D03*
G54D229*
Y84323D03*
G54D226*
Y84823D03*
G54D227*
Y83323D03*
Y82823D03*
Y82322D03*
G54D228*
Y85323D03*
G54D227*
Y85823D03*
G54D322*
X31192Y84133D03*
G54D209*
X39403Y84823D03*
G54D224*
X32672Y69890D03*
G54D223*
Y70390D03*
G54D221*
Y69390D03*
Y68890D03*
G54D222*
Y68390D03*
G54D257*
X34902Y71620D03*
G54D244*
X34402D03*
G54D258*
X33402D03*
G54D222*
X32672Y70890D03*
G54D244*
X33902Y71620D03*
G54D96*
X27702Y69140D03*
G54D243*
X35402Y71620D03*
G54D335*
X87677Y41084D03*
G54D87*
X91687Y42044D03*
G54D222*
X57054Y92545D03*
Y92045D03*
G54D224*
Y91544D03*
G54D52*
X60304Y91994D03*
G54D224*
X57054Y94045D03*
G54D50*
X60304Y92995D03*
G54D222*
X57054Y93044D03*
G54D221*
Y93545D03*
G54D222*
Y91044D03*
Y94545D03*
G54D224*
Y95045D03*
G54D441*
X62604Y91665D03*
X62105D03*
G54D453*
X62604Y94115D03*
X62105D03*
G54D454*
X63105D03*
G54D50*
X61204Y92995D03*
G54D52*
Y91994D03*
G54D436*
X63105Y91665D03*
G54D435*
X63605D03*
G54D441*
X64105D03*
X64605D03*
G54D453*
Y94115D03*
X64105D03*
G54D455*
X63605D03*
G54D26*
X9120Y94695D03*
X11080D03*
G54D25*
X6600Y97096D03*
X5000D03*
G54D26*
X14361Y92495D03*
X12400D03*
X9000Y97096D03*
X11401D03*
G54D47*
X5000Y98756D03*
G54D379*
X10400Y91874D03*
G54D47*
X11000Y98756D03*
G54D46*
X9000D03*
G54D316*
X6290Y92045D03*
X8030D03*
G54D46*
X7000Y98756D03*
G36*
X103122Y53296D02*
G01Y54297D01*
X103133D01*
Y53296D01*
G37*
G36*
Y52757D02*
G01Y51756D01*
X103122D01*
Y52757D01*
G37*
G54D50*
X86407Y45385D03*
X85207D03*
G54D52*
X83996Y45375D03*
X83096D03*
G36*
X80276Y45315D02*
G01X81276D01*
Y45175D01*
X80276D01*
Y45315D01*
G37*
G54D335*
X128851Y88394D03*
X127511D03*
G54D48*
X131410Y108998D03*
G36*
X127874Y71141D02*
G01Y72140D01*
X127885D01*
Y71141D01*
G37*
G54D77*
X129840Y107738D03*
G36*
X127711Y110984D02*
G01X128710D01*
Y110973D01*
X127711D01*
G37*
G54D328*
X129410Y85793D03*
G54D329*
X129560Y94295D03*
G36*
X127885Y81502D02*
G01Y80502D01*
X127874D01*
Y81502D01*
G37*
G36*
X127880Y71146D02*
G01X128881D01*
Y71135D01*
X127880D01*
G37*
G54D330*
X132061Y94295D03*
G54D37*
X132581Y107218D03*
G54D441*
X23902Y46085D03*
G54D436*
X23401D03*
G54D441*
X22901D03*
G54D435*
X22402D03*
G54D441*
X21901D03*
G54D436*
X21401D03*
X20901D03*
G54D216*
X24172Y43475D03*
G54D441*
X19401Y46085D03*
G54D435*
X19901D03*
G54D57*
X25101D03*
G54D253*
X24891Y44705D03*
G54D252*
X25391D03*
G54D251*
X25892D03*
G54D215*
X24172Y43975D03*
G54D441*
X20401Y46085D03*
G54D224*
X32472Y44085D03*
G54D221*
Y44585D03*
Y45085D03*
G54D222*
Y45585D03*
G54D224*
X27622Y43975D03*
G54D222*
X32472Y43585D03*
G54D250*
X26892Y44705D03*
G54D251*
X26392D03*
G54D61*
X29302Y44285D03*
G54D221*
X27622Y43475D03*
G54D225*
X32472Y46585D03*
G54D221*
Y46085D03*
G54D339*
X51374Y49686D03*
G54D435*
X52604Y48105D03*
G54D441*
X52104D03*
G54D434*
X51604D03*
G54D441*
X51104D03*
G54D75*
X86047Y107718D03*
G54D32*
X88767Y107218D03*
X89847D03*
X89317Y108338D03*
G54D33*
X90407D03*
G54D76*
X82066Y107718D03*
G54D38*
X90947Y107218D03*
G54D262*
X56304Y50486D03*
G54D213*
X55204Y48886D03*
G54D263*
X55804Y50486D03*
G54D234*
X55204Y49386D03*
G54D213*
Y49886D03*
G54D262*
X56804Y50486D03*
G54D264*
X57304D03*
G54D215*
X55204Y46886D03*
G54D213*
Y47886D03*
G54D216*
Y48386D03*
G54D213*
Y47385D03*
G54D259*
X57804Y50486D03*
G54D52*
X59204Y54587D03*
G54D261*
X58304Y50486D03*
G54D52*
Y53587D03*
Y54587D03*
G54D260*
X58804Y50486D03*
G54D262*
X59304D03*
G54D259*
X59804D03*
G54D261*
X60804D03*
G54D262*
X60305D03*
G36*
X50274Y101387D02*
G01X50564D01*
Y101397D01*
X50274D01*
Y101387D01*
G37*
G54D385*
X50304Y103317D03*
G54D391*
X50273Y101697D03*
Y101086D03*
G54D108*
X44553Y101717D03*
G54D401*
X50074Y101396D03*
G54D106*
X43503Y101127D03*
G54D349*
X44553Y100376D03*
G54D106*
X43503Y102467D03*
G54D351*
X45553Y100376D03*
G54D108*
Y101717D03*
G54D141*
X50419Y101392D03*
G54D142*
X50424Y101397D03*
G54D143*
X50419Y101392D03*
G54D72*
X111208Y107218D03*
G54D52*
X112809Y105398D03*
G54D37*
X112298Y107218D03*
G54D52*
X111809Y105398D03*
X110809D03*
G54D54*
Y104397D03*
G54D37*
X111749Y108338D03*
G54D40*
X112839D03*
G54D54*
X109809Y104397D03*
G54D52*
Y105398D03*
G54D54*
X112809Y104397D03*
X111809D03*
G54D40*
X113389Y107218D03*
X116659D03*
G54D52*
X115809Y105398D03*
X113809D03*
G54D40*
X115569Y107218D03*
X114479D03*
G54D52*
X116809Y105398D03*
X114810D03*
G54D54*
X116809Y104397D03*
G54D40*
X113929Y108338D03*
X115019D03*
G54D37*
X116109D03*
G54D54*
X115809Y104397D03*
X114810D03*
X113809D03*
G54D437*
X103309Y82562D03*
G54D464*
Y86663D03*
G54D437*
Y89114D03*
G36*
X103133Y78762D02*
G01Y77762D01*
X103122D01*
Y78762D01*
G37*
G54D464*
X103309Y85013D03*
G54D357*
X103708Y91125D03*
G54D223*
X97638Y92495D03*
G54D222*
Y92995D03*
G54D225*
Y96996D03*
G54D222*
Y96496D03*
G54D224*
Y95995D03*
G54D222*
Y95495D03*
Y94995D03*
Y94495D03*
G54D221*
Y93995D03*
G54D224*
Y93495D03*
G54D221*
Y97495D03*
G54D252*
X95908Y98226D03*
X95407D03*
G54D253*
X94907D03*
G54D127*
X99808Y101026D03*
G54D251*
X93907Y98226D03*
G54D253*
X93407D03*
G54D252*
X92907D03*
G54D250*
X92407D03*
G54D251*
X96907D03*
G54D266*
X96407D03*
G54D251*
X94407D03*
G54D58*
X96807Y101497D03*
G54D16*
X6500Y82783D03*
X7500D03*
X6500Y83603D03*
G54D25*
X7500Y85803D03*
G54D26*
X5850Y84293D03*
G54D16*
X7500Y83603D03*
Y84293D03*
Y84983D03*
X6500D03*
Y85803D03*
G54D376*
X12400Y84893D03*
G54D246*
X19151Y83153D03*
X19651D03*
X17151D03*
G54D383*
X15701Y84913D03*
G54D247*
X18651Y83153D03*
G54D246*
X18151D03*
G54D245*
X17651D03*
G54D364*
X18301Y85263D03*
G54D246*
X15151Y83153D03*
X15651D03*
G54D247*
X16151D03*
G54D245*
X16651D03*
G54D246*
X14651D03*
G54D245*
X14151D03*
G54D424*
X44523Y95845D03*
G54D418*
Y97346D03*
G54D427*
X48074Y96345D03*
G54D429*
Y96846D03*
G54D428*
Y97346D03*
G54D424*
X44523Y96846D03*
G54D419*
Y96345D03*
G54D429*
X48074Y95845D03*
G54D221*
X50554Y95545D03*
G54D222*
Y96045D03*
G54D250*
X53304Y96796D03*
G54D253*
X52804D03*
X54304D03*
G54D252*
X53804D03*
G54D251*
X52304D03*
G54D253*
X51304D03*
G54D251*
X51804D03*
G54D252*
X56304D03*
G54D221*
X57054Y95545D03*
G54D222*
Y96045D03*
G54D265*
X55804Y96796D03*
G54D251*
X55304D03*
X54804D03*
G54D331*
X30872Y41384D03*
G54D239*
X112909Y96595D03*
G54D248*
X116659Y98346D03*
X116160D03*
X115659D03*
X115158D03*
G54D275*
X114659D03*
G54D248*
X114159D03*
X113658D03*
G54D240*
X112909Y97096D03*
Y97596D03*
G54D16*
X110808Y100797D03*
G54D23*
X109809D03*
G54D16*
X112809Y101796D03*
X116809Y100797D03*
X115809D03*
X111809Y101796D03*
G54D23*
X109809D03*
G54D16*
X110808D03*
X111809Y100797D03*
X112809D03*
X113809D03*
X114809D03*
Y101796D03*
X115809D03*
X116809D03*
X113809D03*
G54D108*
X45203Y105668D03*
G54D385*
X50304Y105478D03*
G54D52*
X48004Y105498D03*
G54D74*
X46723Y107218D03*
G54D75*
X49454Y107718D03*
G54D32*
X44543Y107218D03*
X43453D03*
X45093Y108338D03*
G54D33*
X46183D03*
G54D52*
X44203Y105498D03*
G54D106*
X43203Y105668D03*
G54D32*
X44003Y108338D03*
G54D36*
X45633Y107218D03*
G54D52*
X46203Y105498D03*
X47103D03*
X58495Y104888D03*
G54D102*
X59245Y108748D03*
X54124D03*
G54D97*
X60725Y107178D03*
G54D68*
X60494Y104787D03*
G54D52*
X57594Y104888D03*
X55594D03*
G54D98*
X52644Y107178D03*
G54D97*
X55604D03*
G54D98*
X57764D03*
G54D108*
X56604Y104968D03*
X59504D03*
G54D446*
X84507Y76942D03*
X84006D03*
G54D52*
X89407Y73391D03*
G54D446*
X86506Y76942D03*
G54D243*
X80906Y76991D03*
G54D448*
X87507Y76942D03*
X85506D03*
G54D446*
X85006D03*
X87007D03*
G54D244*
X80406Y76991D03*
G54D243*
X81906D03*
G54D248*
X81406D03*
G54D447*
X86007Y76942D03*
G54D448*
X83006D03*
G54D447*
X83506D03*
G54D26*
X85807Y78292D03*
G54D273*
X81406Y78892D03*
G54D271*
X80906D03*
X81906D03*
G54D270*
X80406D03*
G36*
X99622Y78762D02*
G01Y79762D01*
X99634D01*
Y78762D01*
G37*
G54D26*
X89707Y78692D03*
X88807Y79292D03*
X82806Y78892D03*
G54D25*
X84806D03*
G54D26*
X85807Y79292D03*
G54D44*
X12801Y101417D03*
G54D46*
X7000Y101497D03*
G54D47*
X5000D03*
G54D25*
X6600Y103097D03*
G54D47*
X11000Y101497D03*
G54D26*
X11401Y103097D03*
X9000D03*
G54D25*
X5000D03*
G54D42*
X4680Y104517D03*
X10581D03*
G54D46*
X9000Y101497D03*
G54D42*
X9600Y105498D03*
G54D43*
X12991Y105416D03*
G54D46*
X4860Y108938D03*
G54D42*
X7630Y109438D03*
X8610D03*
X6650D03*
X7630Y106488D03*
G54D80*
X13401Y109498D03*
G54D42*
X4680Y106488D03*
G54D16*
X77906Y96095D03*
X79486D03*
X77126D03*
X74766D03*
G54D18*
X73976D03*
G54D19*
X73186D03*
G54D16*
X72406D03*
X78696D03*
G54D52*
X64495Y95785D03*
G54D16*
X75546Y96095D03*
G54D18*
X76336D03*
G54D110*
X65705Y96626D03*
G54D109*
X66705D03*
G54D124*
X68005D03*
G54D109*
X69105D03*
G54D124*
X63505Y96766D03*
X62405D03*
G54D19*
X73186Y96876D03*
G54D16*
X75546D03*
G54D18*
X76336D03*
G54D50*
X64495Y96786D03*
G54D16*
X79486Y96876D03*
X78696D03*
X77906D03*
X77126D03*
X74766D03*
G54D18*
X73976D03*
G54D16*
X72406D03*
G54D259*
X41703Y53817D03*
X42203D03*
G54D262*
X42703D03*
G54D261*
X41203D03*
G54D262*
X40703D03*
G54D261*
X40203D03*
G54D259*
X39703D03*
G54D262*
X43203D03*
G54D58*
X46404Y51676D03*
G54D221*
X43933Y53087D03*
G54D224*
Y52587D03*
G54D222*
Y52086D03*
G54D221*
Y51586D03*
Y51086D03*
G54D52*
X45403Y51676D03*
Y52577D03*
G54D58*
X46404D03*
G54D16*
X61405Y59088D03*
G54D50*
X59204Y55587D03*
G54D126*
X58204Y57558D03*
G54D16*
X62405Y59088D03*
G54D19*
X63405D03*
G54D17*
X64405D03*
G54D111*
X58204Y56217D03*
G54D18*
X65405Y59088D03*
G54D20*
X66405D03*
G54D16*
X68405D03*
X67405D03*
G54D323*
X58394Y59528D03*
G54D16*
X52804Y63089D03*
G54D50*
X50504Y63289D03*
X49603D03*
G54D52*
X48994Y61578D03*
G54D322*
X58394Y61268D03*
G54D91*
X61404Y60088D03*
G54D17*
X64405D03*
G54D16*
X62405D03*
G54D18*
X65405D03*
G54D20*
X66405D03*
G54D19*
X63405D03*
G54D16*
X58804Y63089D03*
X67405Y60088D03*
X68405D03*
G54D52*
X48994Y60578D03*
G54D419*
X44523Y97846D03*
G54D336*
X54454Y98346D03*
G54D427*
X48074Y98846D03*
Y98346D03*
Y97846D03*
G54D336*
X53114Y98346D03*
G54D419*
X44523D03*
Y98846D03*
G54D244*
X78706Y98696D03*
G54D258*
X78206D03*
G54D243*
X77706D03*
X74206D03*
G54D221*
X72955Y99446D03*
G54D95*
X63535Y98356D03*
G54D243*
X77206Y98696D03*
G54D249*
X76706D03*
X75206D03*
G54D248*
X75706D03*
G54D50*
X66295Y99296D03*
G54D244*
X76206Y98696D03*
G54D243*
X74706D03*
G54D57*
X67295Y99296D03*
G54D221*
X79456Y99446D03*
G54D249*
X73706Y98696D03*
G54D279*
X13311Y75321D03*
G54D281*
X14111D03*
G54D280*
X12010D03*
G54D276*
X13711Y74451D03*
G54D277*
X11611D03*
G54D279*
X11210Y75321D03*
G54D16*
X74405Y66089D03*
X75546Y70670D03*
G54D18*
X76336Y69890D03*
Y70670D03*
G54D16*
X74766D03*
G54D18*
X73976D03*
G54D16*
X75546Y69890D03*
X74766D03*
G54D18*
X73976D03*
G54D16*
X75406Y66089D03*
G54D18*
X76406D03*
G54D16*
X77906Y69890D03*
G54D17*
X79406Y66089D03*
G54D16*
X78406D03*
X77406D03*
X77126Y69890D03*
Y70670D03*
X79486Y69890D03*
X78696D03*
G54D17*
X79486Y70670D03*
G54D16*
X78696D03*
X77906D03*
G54D54*
X119810Y104397D03*
G54D40*
X119379Y108338D03*
G54D37*
X119920Y107218D03*
G54D240*
X119410Y97596D03*
Y97096D03*
G54D239*
Y96595D03*
G54D16*
X119809Y101796D03*
Y100797D03*
G54D52*
X119810Y105398D03*
G36*
X80276Y48896D02*
G01X81276D01*
Y48756D01*
X80276D01*
Y48896D01*
G37*
G36*
Y49156D02*
G01X81276D01*
Y49016D01*
X80276D01*
Y49156D01*
G37*
G54D52*
X83606Y50686D03*
X84806D03*
G54D58*
X85807D03*
Y49686D03*
G54D52*
X84806D03*
X83606D03*
X82606D03*
Y50686D03*
G36*
X80276Y49666D02*
G01X81276D01*
Y49526D01*
X80276D01*
Y49666D01*
G37*
G36*
Y49406D02*
G01X81276D01*
Y49266D01*
X80276D01*
Y49406D01*
G37*
G54D52*
X87407Y50686D03*
Y49686D03*
X88407D03*
Y50686D03*
G54D83*
X82306Y51987D03*
G54D16*
X81406Y60088D03*
Y59088D03*
Y53087D03*
G54D113*
X83406Y53457D03*
G54D353*
Y52116D03*
G36*
X73936Y44285D02*
G01X74936D01*
Y44145D01*
X73936D01*
Y44285D01*
G37*
G54D222*
X64405Y44385D03*
G36*
X73936Y44035D02*
G01X74936D01*
Y43895D01*
X73936D01*
Y44035D01*
G37*
G36*
Y43775D02*
G01X74936D01*
Y43635D01*
X73936D01*
Y43775D01*
G37*
G54D108*
X72906Y43615D03*
G36*
X73936Y44545D02*
G01X74936D01*
Y44405D01*
X73936D01*
Y44545D01*
G37*
G36*
Y44795D02*
G01X74936D01*
Y44655D01*
X73936D01*
Y44795D01*
G37*
G54D222*
X64405Y43885D03*
G54D224*
Y43385D03*
G36*
X73936Y43265D02*
G01X74936D01*
Y43125D01*
X73936D01*
Y43265D01*
G37*
G36*
Y43515D02*
G01X74936D01*
Y43375D01*
X73936D01*
Y43515D01*
G37*
G54D106*
X71905Y43615D03*
G54D118*
X72906Y44955D03*
G54D223*
X64405Y44885D03*
G54D115*
X71905Y44955D03*
G54D221*
X64405Y45385D03*
G36*
X73936Y45055D02*
G01X74936D01*
Y44915D01*
X73936D01*
Y45055D01*
G37*
G36*
Y45315D02*
G01X74936D01*
Y45175D01*
X73936D01*
Y45315D01*
G37*
G36*
Y46335D02*
G01X74936D01*
Y46195D01*
X73936D01*
Y46335D01*
G37*
G54D221*
X64405Y46385D03*
G36*
X73936Y45565D02*
G01X74936D01*
Y45425D01*
X73936D01*
Y45565D01*
G37*
G36*
Y45825D02*
G01X74936D01*
Y45685D01*
X73936D01*
Y45825D01*
G37*
G54D224*
X64405Y45885D03*
G54D209*
X59804D03*
G36*
X73936Y46075D02*
G01X74936D01*
Y45935D01*
X73936D01*
Y46075D01*
G37*
G54D249*
X54304Y90294D03*
G54D244*
X53804D03*
X56304D03*
G54D243*
X54804D03*
X55304D03*
G54D258*
X55804D03*
G54D51*
X61904Y90194D03*
X60104D03*
G54D52*
X60995Y90184D03*
G54D16*
X15451Y66949D03*
X16201Y66449D03*
G54D17*
X14701Y64449D03*
G54D16*
X13951Y65949D03*
G54D17*
X14701Y66449D03*
G54D16*
X13951Y66949D03*
X16201Y65449D03*
Y64449D03*
X15451Y64949D03*
Y65949D03*
G54D17*
X14701Y65449D03*
G54D16*
X13951Y64949D03*
G54D440*
X21051Y65109D03*
X21551D03*
G54D437*
X22551D03*
G54D438*
X23051D03*
G54D439*
X23551D03*
G54D437*
X19051D03*
G54D439*
X22051D03*
G54D438*
X19551D03*
G54D437*
X20051D03*
G54D439*
X20551D03*
G54D26*
X19801Y95795D03*
G54D25*
X18801D03*
G54D26*
X20801D03*
G54D25*
X21801D03*
G54D416*
X58134Y83973D03*
G54D417*
X57504D03*
G54D416*
X57184D03*
G54D413*
X58444D03*
G54D417*
X58764D03*
X59074D03*
X57814D03*
G54D106*
X59104Y89064D03*
G54D110*
Y87724D03*
G54D280*
X61415Y87254D03*
G54D416*
X60654Y83973D03*
G54D290*
X61015Y88124D03*
G54D52*
X61295Y85693D03*
G54D416*
X60965Y83973D03*
G54D52*
X60995Y89184D03*
G54D353*
X60104Y86323D03*
G54D413*
X61284Y83973D03*
G54D113*
X60104Y87664D03*
G54D417*
X59395Y83973D03*
G54D415*
X59704D03*
G54D417*
X60024D03*
G54D416*
X60334D03*
G54D52*
X60104Y89194D03*
X66105Y82883D03*
G54D408*
X62405Y82853D03*
G54D52*
X67105Y82883D03*
G54D410*
X62405Y82222D03*
G54D409*
Y82533D03*
G54D248*
X78906Y82593D03*
G54D243*
X79406D03*
X77406D03*
X75906D03*
G54D249*
X77906D03*
G54D243*
X72906D03*
X78406D03*
G54D257*
X73406D03*
G54D248*
X73906D03*
G54D244*
X72405D03*
X76906D03*
X74406D03*
G54D243*
X75406D03*
G54D249*
X74906D03*
G54D257*
X76406D03*
G54D243*
X79906D03*
G54D51*
X65105Y88394D03*
G54D292*
X65515Y86553D03*
G54D51*
X65105Y89394D03*
G54D111*
X63905Y86723D03*
G54D285*
X63815Y90124D03*
G54D277*
X65115Y87424D03*
G54D278*
X63415Y89254D03*
G54D111*
X62905Y86723D03*
G54D293*
X63015Y90124D03*
G54D129*
X62905Y88064D03*
X63905D03*
G54D51*
X66105Y88394D03*
Y89394D03*
G54D276*
X65915Y87424D03*
G54D64*
X66995Y89384D03*
G54D52*
X67805Y86794D03*
X66995Y88384D03*
G54D108*
X68805Y89264D03*
Y86764D03*
G54D126*
X66805Y87264D03*
G54D109*
X68805Y87924D03*
G54D52*
X121800Y105388D03*
G54D37*
X122100Y107218D03*
X123190D03*
X121560Y108338D03*
X122650D03*
X121010Y107218D03*
G54D54*
X121800Y104387D03*
G54D224*
X72955Y100447D03*
Y102947D03*
Y103448D03*
Y101446D03*
Y100947D03*
Y101947D03*
Y102446D03*
G54D237*
Y104447D03*
G54D224*
Y103946D03*
G54D35*
X72265Y108338D03*
G54D255*
X75206Y105198D03*
G54D256*
X75706D03*
G54D32*
X73896Y107218D03*
G54D34*
X72805D03*
G54D32*
X74986D03*
X75525Y108338D03*
X74435D03*
X73346D03*
G54D267*
X74206Y105198D03*
G54D255*
X73706D03*
G54D267*
X74706D03*
G54D118*
X41903Y75161D03*
G54D50*
X40803Y74591D03*
X43093Y74881D03*
X38703Y74591D03*
G54D108*
X41903Y73821D03*
G54D52*
X39593Y74581D03*
X43093Y73881D03*
G54D53*
X40803Y73591D03*
G54D52*
X39593Y73581D03*
G54D53*
X38703Y73591D03*
G54D243*
X43403Y79092D03*
X43903D03*
X38903D03*
G54D248*
X39403D03*
G54D243*
X39903D03*
G54D249*
X37903D03*
G54D248*
X41903D03*
G54D244*
X42403D03*
X42903D03*
G54D243*
X41403D03*
G54D248*
X38403D03*
G54D243*
X40903D03*
G54D244*
X40403D03*
G54D16*
X85776Y70670D03*
Y69890D03*
G54D52*
X86496Y68790D03*
G54D20*
X86567Y70670D03*
Y69890D03*
G54D52*
X90007Y66690D03*
Y67689D03*
G54D16*
X87357Y69890D03*
Y70670D03*
G54D52*
X89407Y72391D03*
G54D40*
X146792Y107218D03*
X147882D03*
X148971D03*
G54D41*
X148432Y108338D03*
G54D37*
X149512D03*
X150602D03*
G54D86*
X147311Y84493D03*
X147611Y91895D03*
G54D37*
X150062Y107218D03*
G54D40*
X147342Y108338D03*
G54D212*
X152802Y73691D03*
G54D72*
X151153Y107218D03*
G54D85*
X153512Y104998D03*
X153412Y100596D03*
G54D78*
X153893Y107738D03*
G54D48*
X152032Y108998D03*
G36*
X155588Y110978D02*
G01Y109979D01*
X155577D01*
Y110978D01*
G37*
G36*
Y71141D02*
G01Y72140D01*
X155588D01*
Y71141D01*
G37*
G54D52*
X16801Y75091D03*
G36*
X17640Y75882D02*
G01X17648Y75898D01*
X17674Y75885D01*
X17662Y75860D01*
G37*
G36*
X17625Y75875D02*
G01X17640Y75882D01*
X17662Y75860D01*
X17636Y75847D01*
G37*
G36*
X17602Y75867D02*
G01X17625Y75875D01*
X17636Y75847D01*
X17600Y75835D01*
G37*
G36*
X17587Y75874D02*
G01X17602Y75867D01*
X17600Y75835D01*
X17574Y75848D01*
G37*
G36*
X17639Y75953D02*
G01X17625Y75967D01*
X17637Y75996D01*
X17663Y75970D01*
G37*
G36*
X17587Y75967D02*
G01X17571Y75951D01*
X17550Y75972D01*
X17575Y75996D01*
G37*
G36*
X17601Y75967D02*
G01X17587D01*
X17575Y75996D01*
X17601D01*
G37*
G36*
X17571Y75951D02*
G01X17555Y75935D01*
X17526Y75947D01*
X17550Y75972D01*
G37*
G36*
X17570Y75883D02*
G01X17587Y75874D01*
X17574Y75848D01*
X17552Y75859D01*
G37*
G36*
X17555Y75935D02*
G01Y75921D01*
X17526D01*
Y75947D01*
G37*
G36*
X17655Y75920D02*
G01X17648Y75935D01*
X17674Y75948D01*
X17687Y75922D01*
G37*
G36*
X17648Y75935D02*
G01X17639Y75953D01*
X17663Y75970D01*
X17674Y75948D01*
G37*
G36*
X17555Y75921D02*
G01Y75897D01*
X17526Y75885D01*
Y75921D01*
G37*
G36*
X17555Y75897D02*
G01X17570Y75883D01*
X17552Y75859D01*
X17526Y75885D01*
G37*
G36*
X17647Y75896D02*
G01X17655Y75920D01*
X17687Y75922D01*
X17675Y75887D01*
G37*
G36*
X17625Y75967D02*
G01X17601D01*
Y75996D01*
X17637D01*
G37*
G54D16*
X38403Y40584D03*
G54D331*
X32332Y40184D03*
X33672D03*
G54D16*
X35403Y40584D03*
X36403D03*
G54D17*
X37402D03*
G54D257*
X33702Y42354D03*
G54D244*
X34202D03*
G54D249*
X38203D03*
G54D224*
X32472Y43085D03*
G54D243*
X33202Y42354D03*
X38703D03*
G54D248*
X37703D03*
G54D244*
X37202D03*
G54D249*
X36702D03*
G54D243*
X36203D03*
X35702D03*
X39203D03*
G54D258*
X35202D03*
G54D244*
X34702D03*
G54D16*
X23021Y81372D03*
X22232D03*
X23021Y79012D03*
X22232D03*
Y79802D03*
X23021D03*
Y80582D03*
X22232D03*
G54D248*
X35903Y79092D03*
G54D226*
X33672Y79822D03*
G54D244*
X36902Y79092D03*
G54D249*
X36402D03*
G54D244*
X34402D03*
G54D257*
X34902D03*
G54D243*
X35402D03*
G54D209*
X33522Y78942D03*
G54D227*
X33672Y80322D03*
G54D226*
Y80822D03*
Y81322D03*
G54D243*
X37403Y79092D03*
G54D16*
X22232Y82943D03*
X23021Y83733D03*
X22232D03*
Y84523D03*
X23021D03*
G54D365*
X20301Y85363D03*
G54D16*
X22232Y85303D03*
X23021D03*
Y82943D03*
Y82163D03*
X22232D03*
G54D277*
X28082Y84553D03*
G54D345*
X25802Y85363D03*
G54D346*
Y84023D03*
G54D278*
X28882Y84553D03*
G54D26*
X27902Y83293D03*
G54D276*
X28482Y85423D03*
G54D334*
X26902Y84023D03*
G54D331*
Y85363D03*
G54D251*
X39903Y60158D03*
G54D250*
X39403D03*
G54D251*
X40903D03*
X41403D03*
G54D252*
X40403D03*
G54D251*
X38903D03*
G54D26*
X9600Y88494D03*
G54D285*
X26382Y88324D03*
G54D289*
X30382D03*
G54D227*
X33672Y88824D03*
Y88324D03*
G54D16*
X23021Y88454D03*
X22232D03*
G54D81*
X36002Y88194D03*
G54D285*
X28382Y88324D03*
G54D325*
X17251Y88994D03*
G54D324*
X19751D03*
G54D16*
X22232Y89244D03*
X23021D03*
Y90034D03*
X22232D03*
G54D290*
X27982Y89454D03*
G54D282*
X30782D03*
X29982D03*
G54D283*
X28782D03*
G54D284*
X26782D03*
G54D283*
X25982D03*
G54D226*
X33672Y89824D03*
G54D227*
Y89324D03*
G36*
X75866Y50736D02*
G01X76006D01*
Y49736D01*
X75866D01*
Y50736D01*
G37*
G54D16*
X77406Y53087D03*
G54D18*
X76406D03*
G36*
X76896Y50736D02*
G01X77036D01*
Y49736D01*
X76896D01*
Y50736D01*
G37*
G36*
X77146D02*
G01X77286D01*
Y49736D01*
X77146D01*
Y50736D01*
G37*
G36*
X77406D02*
G01X77546D01*
Y49736D01*
X77406D01*
Y50736D01*
G37*
G36*
X77656D02*
G01X77796D01*
Y49736D01*
X77656D01*
Y50736D01*
G37*
G36*
X77916D02*
G01X78056D01*
Y49736D01*
X77916D01*
Y50736D01*
G37*
G36*
X76636D02*
G01X76776D01*
Y49736D01*
X76636D01*
Y50736D01*
G37*
G36*
X76376D02*
G01X76516D01*
Y49736D01*
X76376D01*
Y50736D01*
G37*
G36*
X76126D02*
G01X76266D01*
Y49736D01*
X76126D01*
Y50736D01*
G37*
G36*
X78936D02*
G01X79076D01*
Y49736D01*
X78936D01*
Y50736D01*
G37*
G36*
X79706D02*
G01X79846D01*
Y49736D01*
X79706D01*
Y50736D01*
G37*
G36*
X79966D02*
G01X80106D01*
Y49736D01*
X79966D01*
Y50736D01*
G37*
G36*
X79456D02*
G01X79596D01*
Y49736D01*
X79456D01*
Y50736D01*
G37*
G36*
X79196D02*
G01X79336D01*
Y49736D01*
X79196D01*
Y50736D01*
G37*
G36*
X78176D02*
G01X78316D01*
Y49736D01*
X78176D01*
Y50736D01*
G37*
G36*
X78426D02*
G01X78566D01*
Y49736D01*
X78426D01*
Y50736D01*
G37*
G36*
X78686D02*
G01X78826D01*
Y49736D01*
X78686D01*
Y50736D01*
G37*
G54D17*
X79406Y53087D03*
G54D16*
X78406D03*
G54D133*
X59504Y103627D03*
G54D348*
X56604D03*
G54D58*
X60494Y103786D03*
G54D52*
X55594Y103887D03*
X58495D03*
X57594D03*
G54D335*
X86337Y41084D03*
G36*
X80276Y42234D02*
G01X81276D01*
Y42094D01*
X80276D01*
Y42234D01*
G37*
G54D207*
X84306Y42184D03*
G54D51*
X83106D03*
G36*
X80276Y42495D02*
G01X81276D01*
Y42355D01*
X80276D01*
Y42495D01*
G37*
G36*
Y42755D02*
G01X81276D01*
Y42615D01*
X80276D01*
Y42755D01*
G37*
G36*
Y43005D02*
G01X81276D01*
Y42865D01*
X80276D01*
Y43005D01*
G37*
G36*
Y43265D02*
G01X81276D01*
Y43125D01*
X80276D01*
Y43265D01*
G37*
G36*
Y43515D02*
G01X81276D01*
Y43375D01*
X80276D01*
Y43515D01*
G37*
G54D51*
X83106Y43185D03*
G54D207*
X84306D03*
G36*
X80276Y44035D02*
G01X81276D01*
Y43895D01*
X80276D01*
Y44035D01*
G37*
G36*
Y43775D02*
G01X81276D01*
Y43635D01*
X80276D01*
Y43775D01*
G37*
G54D52*
X83996Y44375D03*
G36*
X80276Y44285D02*
G01X81276D01*
Y44145D01*
X80276D01*
Y44285D01*
G37*
G36*
Y44545D02*
G01X81276D01*
Y44405D01*
X80276D01*
Y44545D01*
G37*
G54D52*
X85207Y44385D03*
G36*
X80276Y44795D02*
G01X81276D01*
Y44655D01*
X80276D01*
Y44795D01*
G37*
G36*
Y45055D02*
G01X81276D01*
Y44915D01*
X80276D01*
Y45055D01*
G37*
G54D52*
X83096Y44375D03*
X86407Y44385D03*
G54D244*
X72405Y73291D03*
G54D243*
X75406D03*
G54D249*
X74906D03*
G54D244*
X74406D03*
G54D119*
X71105Y73591D03*
G54D248*
X73906Y73291D03*
G54D257*
X73406D03*
G54D243*
X72906D03*
Y76991D03*
G54D271*
Y78892D03*
G54D272*
X73406D03*
G54D249*
X74906Y76991D03*
G54D244*
X72405D03*
G54D257*
X73406D03*
G54D270*
X72405Y78892D03*
G54D248*
X73906Y76991D03*
G54D244*
X74406D03*
G54D270*
Y78892D03*
G54D271*
X75406D03*
G54D243*
Y76991D03*
G54D273*
X73906Y78892D03*
G54D274*
X74906D03*
G54D20*
X66405Y53087D03*
G54D16*
X67405D03*
X68405D03*
X69405D03*
G54D250*
X35903Y60158D03*
G54D253*
X36402D03*
G54D64*
X32592Y58878D03*
G54D251*
X35402Y60158D03*
G54D266*
X34902D03*
G54D252*
X34402D03*
X33902D03*
G54D52*
X32592Y57878D03*
G54D253*
X37903Y60158D03*
G54D251*
X37403D03*
G54D252*
X36902D03*
G54D209*
X32522Y60008D03*
G54D265*
X33402Y60158D03*
G54D222*
X32672Y60888D03*
G54D223*
Y63389D03*
G54D222*
Y61888D03*
G54D221*
Y62389D03*
G54D224*
Y61388D03*
Y63889D03*
G54D222*
Y62889D03*
G54D435*
X19901Y53086D03*
G54D441*
X20401D03*
X23902D03*
G54D436*
X23401D03*
X20901D03*
X21401D03*
G54D441*
X21901D03*
G54D435*
X22402D03*
G54D441*
X22901D03*
X19401D03*
G54D143*
X52179Y101392D03*
G54D158*
X52184Y101397D03*
G54D18*
X55404Y101496D03*
G54D16*
X55904Y100696D03*
G54D141*
X52179Y101392D03*
G36*
X52034Y101387D02*
G01X52324D01*
Y101397D01*
X52034D01*
Y101387D01*
G37*
G54D401*
X52534Y101396D03*
G54D392*
X52334Y101697D03*
Y101086D03*
G54D17*
X56404Y101496D03*
G54D16*
X60904Y100696D03*
G54D18*
X60404Y101496D03*
G54D16*
X59404D03*
X58404D03*
X57404D03*
X59905Y100696D03*
G54D17*
X58904D03*
G54D18*
X57904D03*
X56904D03*
G36*
X73936Y47876D02*
G01X74936D01*
Y47736D01*
X73936D01*
Y47876D01*
G37*
G36*
Y47616D02*
G01X74936D01*
Y47476D01*
X73936D01*
Y47616D01*
G37*
G36*
Y49666D02*
G01X74936D01*
Y49526D01*
X73936D01*
Y49666D01*
G37*
G36*
Y49406D02*
G01X74936D01*
Y49266D01*
X73936D01*
Y49406D01*
G37*
G36*
Y48126D02*
G01X74936D01*
Y47986D01*
X73936D01*
Y48126D01*
G37*
G36*
Y48385D02*
G01X74936D01*
Y48246D01*
X73936D01*
Y48385D01*
G37*
G36*
Y48636D02*
G01X74936D01*
Y48496D01*
X73936D01*
Y48636D01*
G37*
G36*
Y49156D02*
G01X74936D01*
Y49016D01*
X73936D01*
Y49156D01*
G37*
G36*
Y48896D02*
G01X74936D01*
Y48756D01*
X73936D01*
Y48896D01*
G37*
G36*
Y46845D02*
G01X74936D01*
Y46705D01*
X73936D01*
Y46845D01*
G37*
G36*
Y47106D02*
G01X74936D01*
Y46966D01*
X73936D01*
Y47106D01*
G37*
G36*
Y47356D02*
G01X74936D01*
Y47215D01*
X73936D01*
Y47356D01*
G37*
G36*
X75356Y50736D02*
G01X75496D01*
Y49736D01*
X75356D01*
Y50736D01*
G37*
G36*
X75096D02*
G01X75236D01*
Y49736D01*
X75096D01*
Y50736D01*
G37*
G54D16*
X72406Y53087D03*
X71405D03*
X75406D03*
X70405D03*
X74405D03*
G54D17*
X73406D03*
G54D16*
X72406Y59088D03*
G54D17*
X73406D03*
G54D16*
X75406D03*
G54D18*
X76406D03*
G54D17*
X79406D03*
G54D16*
X78406D03*
X74405D03*
X77406D03*
X69405D03*
X70405D03*
X71405D03*
G54D17*
X73406Y60088D03*
X79406D03*
G54D16*
X78406D03*
G54D18*
X76406D03*
G54D16*
X75406D03*
X74405D03*
X70405D03*
X77406D03*
X71405D03*
X72406D03*
X69405D03*
G54D222*
X43933Y47586D03*
G54D221*
Y48086D03*
G54D58*
X46404Y49976D03*
G54D52*
X45403D03*
G54D337*
X45933Y47386D03*
G54D222*
X43933Y47085D03*
G54D224*
Y50086D03*
G54D222*
Y49586D03*
G54D223*
Y49086D03*
G54D52*
X46003Y48276D03*
G54D56*
Y49076D03*
G54D222*
X43933Y48586D03*
G54D52*
X47004Y48276D03*
G54D59*
Y49076D03*
G54D337*
X47274Y47386D03*
G54D336*
X50033Y49686D03*
G54D436*
X50604Y48105D03*
G54D442*
X50104D03*
G54D441*
X49604D03*
G54D415*
X54664Y83973D03*
G54D413*
X54984D03*
G54D417*
X55294D03*
X55614D03*
X52464D03*
X54034D03*
G54D415*
X56244D03*
G54D414*
X56554D03*
G54D416*
X52774D03*
G54D417*
X53404D03*
G54D416*
X53724D03*
G54D413*
X53094D03*
G54D416*
X55924D03*
G54D417*
X54354D03*
G54D52*
X54294Y86283D03*
G54D59*
X55804Y86193D03*
G54D26*
X53504Y88894D03*
G54D335*
X53074Y87694D03*
G54D58*
X54604Y88884D03*
G54D52*
X55604D03*
X54294Y87284D03*
X55804Y87194D03*
G36*
X80276Y47876D02*
G01X81276D01*
Y47736D01*
X80276D01*
Y47876D01*
G37*
G36*
Y47616D02*
G01X81276D01*
Y47476D01*
X80276D01*
Y47616D01*
G37*
G36*
Y46845D02*
G01X81276D01*
Y46705D01*
X80276D01*
Y46845D01*
G37*
G36*
Y46595D02*
G01X81276D01*
Y46455D01*
X80276D01*
Y46595D01*
G37*
G36*
Y47356D02*
G01X81276D01*
Y47215D01*
X80276D01*
Y47356D01*
G37*
G36*
Y45565D02*
G01X81276D01*
Y45425D01*
X80276D01*
Y45565D01*
G37*
G36*
Y45825D02*
G01X81276D01*
Y45685D01*
X80276D01*
Y45825D01*
G37*
G36*
Y48126D02*
G01X81276D01*
Y47986D01*
X80276D01*
Y48126D01*
G37*
G36*
Y48385D02*
G01X81276D01*
Y48246D01*
X80276D01*
Y48385D01*
G37*
G36*
Y46075D02*
G01X81276D01*
Y45935D01*
X80276D01*
Y46075D01*
G37*
G36*
Y48636D02*
G01X81276D01*
Y48496D01*
X80276D01*
Y48636D01*
G37*
G36*
Y46335D02*
G01X81276D01*
Y46195D01*
X80276D01*
Y46335D01*
G37*
G36*
Y47106D02*
G01X81276D01*
Y46966D01*
X80276D01*
Y47106D01*
G37*
G54D52*
X82506Y47986D03*
X83606D03*
G54D59*
Y46985D03*
X82506D03*
G54D440*
X21901Y49636D03*
X20401D03*
G54D437*
X19901D03*
G54D438*
X23401D03*
G54D110*
X25101Y49456D03*
G54D347*
Y48116D03*
G54D440*
X22901Y49636D03*
G54D437*
X22402D03*
G54D440*
X23902D03*
G54D438*
X20901D03*
X21401D03*
G54D440*
X19401D03*
G54D224*
X32472Y50086D03*
G54D222*
Y49586D03*
Y48586D03*
G54D223*
Y49086D03*
G54D222*
Y50586D03*
G54D221*
Y48086D03*
G54D222*
Y47586D03*
G54D210*
X38203Y48086D03*
G54D411*
X62405Y79702D03*
G54D409*
Y79382D03*
G54D411*
Y79072D03*
G54D409*
Y81272D03*
Y78752D03*
Y78442D03*
G54D411*
Y80962D03*
G54D409*
Y80642D03*
Y80332D03*
Y80012D03*
Y81592D03*
G54D410*
Y75291D03*
G54D411*
Y74981D03*
G54D409*
Y74661D03*
G54D411*
Y74031D03*
G54D412*
Y73721D03*
G54D411*
Y73401D03*
G54D409*
Y73091D03*
G54D408*
Y74351D03*
G54D410*
Y75611D03*
G54D409*
Y76241D03*
G54D410*
Y76551D03*
G54D409*
Y76871D03*
G54D411*
Y78122D03*
Y77812D03*
G54D409*
Y77502D03*
G54D408*
Y77182D03*
G54D409*
Y75921D03*
G54D25*
X6500Y81402D03*
G54D318*
X8040Y79292D03*
G54D317*
X9780D03*
G54D16*
X7500Y81403D03*
G54D244*
X14151Y80432D03*
G54D243*
X19651D03*
X14651D03*
X15151D03*
X18151D03*
G54D248*
X18651D03*
G54D58*
X15691Y79092D03*
G54D243*
X19151Y80432D03*
G54D52*
X16691Y79092D03*
G54D334*
X19271D03*
G54D333*
X17931D03*
G54D243*
X15651Y80432D03*
G54D248*
X16151D03*
G54D244*
X16651D03*
G54D243*
X17151D03*
G54D244*
X17651D03*
G54D16*
X67905Y100696D03*
X68905D03*
X69905D03*
X70405Y101496D03*
X69405D03*
X68405D03*
X67405D03*
G54D52*
X69905Y105598D03*
G54D33*
X68445Y107218D03*
G54D327*
X68405Y105598D03*
G54D32*
X68995Y108338D03*
X70625Y107218D03*
X67905Y108338D03*
X67345Y107218D03*
X69535D03*
G54D37*
X70085Y108338D03*
G54D32*
X71175D03*
G54D52*
X70906Y105598D03*
G54D368*
X68785Y91394D03*
G54D371*
Y94395D03*
G54D370*
X66625D03*
G54D436*
X65105Y91665D03*
G54D454*
Y94115D03*
G54D369*
X66625Y91394D03*
G54D244*
X72405Y93795D03*
G54D257*
X76406D03*
G54D244*
X76906D03*
G54D243*
X79906D03*
G54D248*
X78906D03*
G54D243*
X79406D03*
G54D257*
X73406D03*
G54D243*
X75906D03*
G54D249*
X74906D03*
G54D243*
X75406D03*
X78406D03*
G54D248*
X73906D03*
G54D244*
X74406D03*
G54D249*
X77906D03*
G54D243*
X72906D03*
X77406D03*
G54D40*
X134221Y108338D03*
X133130D03*
G54D37*
X134761Y107218D03*
X133670D03*
X135301Y108338D03*
X135850Y107218D03*
G54D23*
X136810Y99496D03*
Y98496D03*
G54D84*
X135710Y103997D03*
G54D16*
X135811Y98496D03*
Y97496D03*
Y101496D03*
Y99496D03*
Y100496D03*
G54D23*
X136810D03*
Y101496D03*
G54D94*
Y97496D03*
G54D40*
X136391Y108338D03*
G54D243*
X37403Y71620D03*
G54D248*
X38403D03*
G54D244*
X36902D03*
G54D243*
X38903D03*
G54D249*
X37903D03*
G54D243*
X39903D03*
G54D248*
X39403D03*
X35903D03*
G54D249*
X36402D03*
G54D233*
X44133Y68890D03*
Y69390D03*
G54D232*
Y69890D03*
G54D243*
X43403Y71620D03*
G54D244*
X42903D03*
X42403D03*
G54D209*
X44273Y71761D03*
G54D243*
X40903Y71620D03*
G54D230*
X44133Y68390D03*
G54D244*
X40403Y71620D03*
G54D230*
X44133Y70890D03*
G54D231*
Y70390D03*
G54D243*
X41403Y71620D03*
G54D248*
X41903D03*
G54D243*
X80906Y82593D03*
G54D271*
Y84493D03*
G54D273*
X81406D03*
G54D243*
X80906Y88194D03*
G54D244*
X80406D03*
G54D248*
X81406D03*
Y82593D03*
G54D243*
X81906Y88194D03*
G54D244*
X80406Y82593D03*
G54D243*
X81906D03*
G54D271*
Y84493D03*
G54D270*
X80406D03*
G54D16*
X81056Y96095D03*
G54D248*
X81406Y93795D03*
G54D243*
X81906D03*
Y90094D03*
G54D248*
X81406D03*
G54D243*
X80906D03*
G54D16*
X81846Y96095D03*
G54D17*
X82636D03*
G54D243*
X80906Y93795D03*
G54D16*
X83416Y96876D03*
Y96095D03*
G54D17*
X82636Y96876D03*
G54D16*
X81846D03*
X81056D03*
G54D244*
X80406Y90094D03*
Y93795D03*
G54D248*
X35903Y90554D03*
G54D249*
X36402D03*
G54D243*
X35402D03*
G54D244*
X40403D03*
G54D243*
X40903D03*
X41403D03*
X39903D03*
G54D248*
X39403D03*
G54D243*
X38903D03*
G54D291*
X30382Y90324D03*
G54D248*
X38403Y90554D03*
G54D249*
X37903D03*
G54D243*
X37403D03*
G54D244*
X36902D03*
X34402D03*
G54D257*
X34902D03*
G54D468*
X48394Y90574D03*
G54D244*
X42403Y90554D03*
X42903D03*
G54D243*
X51804Y90294D03*
X43403Y90554D03*
G54D249*
X51304Y90294D03*
G54D243*
X43903Y90554D03*
G54D248*
X44403D03*
G54D249*
X52804Y90294D03*
G54D243*
X52304D03*
G54D248*
X41903Y90554D03*
G54D243*
X42203Y42354D03*
X41703D03*
G54D248*
X41203D03*
G54D16*
X40403Y40584D03*
G54D17*
X41403D03*
G54D16*
X42403D03*
G54D244*
X43203Y42354D03*
X42703D03*
G54D224*
X43933Y43085D03*
G54D211*
X44073Y42204D03*
G54D20*
X43403Y40584D03*
G54D243*
X39703Y42354D03*
G54D248*
X40203D03*
G54D244*
X40703D03*
G54D221*
X43933Y46085D03*
G54D222*
Y45585D03*
G54D221*
Y45085D03*
Y44585D03*
G54D224*
Y44085D03*
G54D222*
Y43585D03*
G54D243*
X77406Y76991D03*
X79906D03*
G54D257*
X76406D03*
G54D244*
X76906D03*
G54D243*
X75906D03*
X79406D03*
G54D248*
X78906D03*
G54D243*
X78406D03*
G54D249*
X77906D03*
G54D271*
X79406Y78892D03*
X77406D03*
X78406D03*
G54D274*
X77906D03*
G54D273*
X78906D03*
G54D271*
X79906D03*
G54D270*
X76906D03*
G54D272*
X76406D03*
G54D271*
X75906D03*
G54D277*
X88117Y85723D03*
G54D296*
X88917D03*
G54D279*
X88517Y86553D03*
G54D315*
X89107Y83353D03*
G54D81*
X92707Y82492D03*
G54D52*
X90497Y85883D03*
G54D279*
X88517Y84853D03*
G54D53*
X90497Y86883D03*
G54D244*
X92907Y90764D03*
G54D248*
X92407D03*
G54D249*
X91907D03*
G54D243*
X91407D03*
G54D213*
X90177Y91494D03*
G54D277*
X88117Y87424D03*
G54D296*
X88917D03*
G54D243*
X93907Y90764D03*
X90907D03*
G54D249*
X93407D03*
G54D224*
X79456Y102446D03*
Y101947D03*
Y103448D03*
Y103946D03*
Y102947D03*
Y100447D03*
Y100947D03*
Y101446D03*
G54D237*
Y104447D03*
G54D255*
X76706Y105198D03*
G54D37*
X77166Y107218D03*
G54D254*
X78706Y105198D03*
G54D268*
X78206D03*
G54D32*
X78266Y107218D03*
G54D267*
X77206Y105198D03*
X77706D03*
G54D32*
X76616Y108338D03*
X79346Y107218D03*
X78796Y108338D03*
X77706D03*
G54D467*
X48254Y90894D03*
G54D427*
X48074Y94845D03*
G54D467*
X48543Y91484D03*
X48263D03*
G54D209*
X45273Y90694D03*
G54D467*
X48543Y90894D03*
G54D428*
X48074Y94345D03*
G54D419*
X44523Y94845D03*
G54D418*
Y94345D03*
G54D222*
X50554Y92045D03*
Y92545D03*
Y93044D03*
G54D221*
Y93545D03*
G54D224*
Y94045D03*
G54D222*
Y91044D03*
G54D224*
Y91544D03*
G54D222*
Y94545D03*
G54D82*
X55104Y93895D03*
G54D224*
X50554Y95045D03*
G54D417*
X57504Y71971D03*
G54D416*
X60334D03*
X60654D03*
X60965D03*
G54D413*
X61284D03*
G54D414*
X56554D03*
G54D417*
X60024D03*
G54D415*
X59704D03*
G54D417*
X59395D03*
X59074D03*
X58764D03*
G54D413*
X58444D03*
G54D416*
X58134D03*
G54D417*
X57814D03*
G54D413*
X56874D03*
G54D416*
X57184D03*
G54D335*
X78586Y71940D03*
G54D109*
X71105Y72250D03*
G54D331*
X63935Y84293D03*
G54D341*
X65275D03*
G54D270*
X72405Y84493D03*
G54D271*
X79906D03*
X79406D03*
G54D273*
X78906D03*
G54D271*
X78406D03*
G54D272*
X76406D03*
G54D270*
X76906D03*
G54D271*
X77406D03*
G54D274*
X77906D03*
G54D270*
X74406D03*
G54D273*
X73906D03*
G54D272*
X73406D03*
G54D274*
X74906D03*
G54D271*
X75406D03*
X75906D03*
X72906D03*
G54D32*
X40193Y107218D03*
X39103D03*
X39643Y108338D03*
G54D108*
X39503Y102467D03*
G54D52*
X40303Y105498D03*
X39403D03*
X40303Y104498D03*
X39403D03*
G54D108*
X41003Y102467D03*
G54D32*
X40733Y108338D03*
G54D52*
X41203Y104498D03*
G54D32*
X42363Y107218D03*
X41273D03*
G54D348*
X42203Y104327D03*
G54D34*
X41823Y108338D03*
G54D108*
X42203Y105668D03*
G54D52*
X41203Y105498D03*
G36*
X17683Y100161D02*
G01X17667Y100195D01*
X17822Y100306D01*
X17839Y100272D01*
G37*
G36*
X17704Y100141D02*
G01X17683Y100161D01*
X17839Y100272D01*
X17885Y100225D01*
G37*
G36*
X17676Y100228D02*
G01X17686Y100248D01*
X17885Y100225D01*
X17846Y100145D01*
G37*
G36*
X17689Y100241D02*
G01X17709Y100251D01*
X17822Y100097D01*
X17753Y100062D01*
G37*
G36*
X17763Y100172D02*
G01X17743Y100163D01*
X17658Y100330D01*
X17739Y100370D01*
G37*
G36*
X17676Y100169D02*
G01X17655Y100189D01*
X17739Y100370D01*
X17797Y100314D01*
G37*
G36*
X17724Y100250D02*
G01X17744Y100240D01*
X17678Y100062D01*
X17612Y100097D01*
G37*
G36*
X17701Y100251D02*
G01X17721D01*
Y100062D01*
X17678D01*
G37*
G36*
X17721Y100251D02*
G01X17731D01*
X17753Y100062D01*
X17721D01*
G37*
G36*
X17743Y100163D02*
G01X17724Y100153D01*
X17612Y100306D01*
X17658Y100330D01*
G37*
G36*
X17765Y100193D02*
G01X17754Y100173D01*
X17577Y100240D01*
X17612Y100306D01*
G37*
G36*
X17765Y100216D02*
G01Y100207D01*
X17577D01*
Y100240D01*
G37*
G36*
X17765Y100207D02*
G01Y100187D01*
X17577Y100163D01*
Y100207D01*
G37*
G36*
X17709Y100152D02*
G01X17676Y100169D01*
X17773Y100331D01*
X17822Y100306D01*
G37*
G36*
X17667Y100208D02*
G01X17676Y100228D01*
X17846Y100145D01*
X17822Y100097D01*
G37*
G36*
X17754Y100230D02*
G01X17765Y100210D01*
X17612Y100097D01*
X17577Y100163D01*
G37*
G54D45*
X17551Y109798D03*
G54D16*
X18901Y40384D03*
G54D249*
X24891Y41254D03*
G54D214*
X24172Y42475D03*
G54D215*
Y42974D03*
G54D16*
X19901Y40384D03*
G54D19*
X21901D03*
G54D17*
X20901D03*
G54D213*
X24172Y41975D03*
G54D331*
X29532Y41384D03*
G54D224*
X27622Y42974D03*
G54D52*
X29292Y40184D03*
G54D244*
X25391Y41254D03*
G54D243*
X25892D03*
X26392D03*
G54D248*
X26892D03*
G54D223*
X27622Y42475D03*
G54D222*
Y41975D03*
G54D52*
X30292Y40184D03*
G54D16*
X15451Y67950D03*
G54D435*
X20051Y68660D03*
G54D441*
X21551D03*
G54D89*
X16201Y68450D03*
G54D435*
X19051Y68660D03*
G54D436*
X19551D03*
G54D80*
X5600Y68490D03*
G54D434*
X23551Y68660D03*
G54D436*
X23051D03*
G54D435*
X22551D03*
G54D434*
X22051D03*
G54D16*
X13951Y67950D03*
G54D434*
X20551Y68660D03*
G54D17*
X14701Y68450D03*
G54D441*
X21051Y68660D03*
G54D79*
X15451Y70200D03*
G54D51*
X22791Y70280D03*
G54D61*
X21791D03*
G54D52*
X22791Y71281D03*
G54D58*
X21791D03*
G54D396*
X101278Y97396D03*
G54D152*
X101423Y97091D03*
G54D402*
X101078Y97096D03*
G54D461*
X101608Y100466D03*
G54D462*
X102108D03*
G54D150*
X101423Y97091D03*
G54D159*
X101428Y97096D03*
G36*
X101278Y97086D02*
G01X101568D01*
Y97095D01*
X101278D01*
Y97086D01*
G37*
G54D461*
X101108Y100466D03*
G54D393*
X101278Y96786D03*
G54D459*
X101108Y102917D03*
X101608D03*
G54D460*
X102108D03*
G54D54*
X101598Y104387D03*
G54D37*
X101298Y108338D03*
G54D72*
X101848Y107218D03*
G54D52*
X101598Y105388D03*
G54D302*
X116409Y84093D03*
G54D303*
X115609D03*
G54D299*
X115618Y86123D03*
G54D304*
X116009Y83223D03*
G54D52*
X114399Y84693D03*
X116910Y88084D03*
G54D51*
X114399Y88094D03*
G54D64*
X114409Y83783D03*
G54D300*
X116419Y86123D03*
G54D301*
X116019Y85253D03*
G54D60*
X114409Y86093D03*
G54D52*
Y87083D03*
G54D248*
X113658Y91844D03*
X115659D03*
X115158D03*
G54D275*
X114659D03*
G54D248*
X114159D03*
X116160D03*
X116659D03*
G54D85*
X116709Y95195D03*
G54D433*
X121860Y85593D03*
G54D430*
Y86094D03*
G54D335*
X121780Y88394D03*
G54D432*
X121860Y86593D03*
G54D433*
Y87093D03*
Y85093D03*
G54D432*
Y84593D03*
G54D430*
Y83593D03*
G54D431*
Y84093D03*
G54D242*
X123210D03*
G54D239*
Y84593D03*
G54D240*
Y85093D03*
G54D241*
Y83593D03*
G54D240*
Y85593D03*
G54D241*
Y86094D03*
G54D239*
Y86593D03*
G54D240*
Y87093D03*
G54D433*
X119410Y85093D03*
Y85593D03*
G54D430*
Y86094D03*
G54D432*
Y86593D03*
Y84593D03*
G54D430*
Y83593D03*
G54D433*
Y87093D03*
G54D431*
Y84093D03*
G54D240*
Y95095D03*
G54D242*
Y95595D03*
G54D240*
Y96095D03*
G54D239*
Y93095D03*
G54D240*
Y93595D03*
G54D239*
Y92595D03*
G54D240*
Y94095D03*
G54D84*
X119810Y90094D03*
G54D241*
X119410Y94595D03*
G54D213*
X55204Y42884D03*
G54D252*
X56804Y41284D03*
G54D214*
X55204Y42384D03*
G54D213*
Y41885D03*
G54D250*
X58304Y41284D03*
G54D251*
X57804D03*
G54D266*
X57304D03*
G54D215*
X55204Y43385D03*
G54D265*
X55804Y41284D03*
G54D252*
X56304D03*
G54D211*
X55054Y41135D03*
G54D216*
X55204Y46385D03*
G54D215*
Y45885D03*
G54D216*
Y45385D03*
G54D214*
Y44885D03*
G54D213*
Y44385D03*
Y43885D03*
G54D16*
X15451Y59948D03*
X16201Y59448D03*
X15451Y58948D03*
X13951D03*
G54D17*
X14701Y59448D03*
G54D16*
X13951Y59948D03*
G54D17*
X14701Y60448D03*
G54D16*
X16201D03*
G54D441*
X19401Y59088D03*
G54D16*
X15451Y60948D03*
X13951D03*
X15451Y61948D03*
X16201Y61448D03*
Y63449D03*
X15451Y62949D03*
G54D440*
X19401Y62638D03*
G54D17*
X14701Y61448D03*
G54D16*
X16201Y62448D03*
G54D17*
X14701Y63449D03*
G54D16*
X13951Y62949D03*
G54D17*
X14701Y62448D03*
G54D16*
X13951Y61948D03*
G54D222*
X64405Y49886D03*
G54D224*
Y46886D03*
G54D222*
Y47385D03*
Y47886D03*
G54D235*
Y49386D03*
G54D222*
Y48886D03*
G54D221*
Y48386D03*
G54D259*
X63805Y50486D03*
X63305D03*
G54D261*
X61805D03*
G54D262*
X62805D03*
G54D209*
X64555Y50636D03*
G54D18*
X65405Y53087D03*
G54D17*
X64405D03*
G54D19*
X63405D03*
G54D259*
X62304Y50486D03*
G54D16*
X62405Y53087D03*
G54D222*
X45133Y82322D03*
G54D221*
Y84823D03*
G54D223*
Y84323D03*
G54D222*
Y83823D03*
Y85823D03*
G54D224*
Y85323D03*
G54D222*
Y83323D03*
Y82823D03*
G54D52*
X50293Y85383D03*
G54D121*
X48804Y84563D03*
G54D417*
X51514Y83973D03*
G54D407*
X50394Y82222D03*
G54D403*
Y82533D03*
G54D109*
X48804Y83223D03*
G54D80*
X50203Y84093D03*
G54D406*
X50394Y82853D03*
G54D415*
X51834Y83973D03*
G54D222*
X32672Y64389D03*
G54D224*
Y64889D03*
G54D221*
Y65389D03*
G54D209*
X38403Y65889D03*
G54D223*
X32672D03*
G54D231*
X44133D03*
G54D233*
Y65389D03*
G54D232*
Y64889D03*
G54D230*
Y64389D03*
G54D222*
X32672Y67890D03*
G54D230*
X44133D03*
G54D232*
Y67390D03*
G54D224*
X32672D03*
G54D230*
X44133Y66889D03*
Y66389D03*
G54D222*
X32672D03*
Y66889D03*
G54D259*
X33202Y53817D03*
G54D221*
X32472Y51586D03*
G54D222*
Y52086D03*
G54D209*
X32322Y53957D03*
G54D224*
X32472Y52587D03*
G54D221*
Y53087D03*
G54D262*
X34702Y53817D03*
G54D221*
X32472Y51086D03*
G54D263*
X35202Y53817D03*
G54D262*
X34202D03*
G54D264*
X33702D03*
G54D259*
X35702D03*
G54D260*
X36702D03*
G54D262*
X37202D03*
G54D259*
X39203D03*
X38703D03*
X36203D03*
G54D260*
X38203D03*
G54D261*
X37703D03*
G54D17*
X82636Y69890D03*
G54D16*
X81846Y70670D03*
Y69890D03*
G54D17*
X82636Y70670D03*
G54D16*
X81406Y66089D03*
X81056Y69890D03*
G54D52*
X82606Y71881D03*
G54D16*
X81056Y70670D03*
X83416Y69890D03*
G54D52*
X83606Y71881D03*
G54D16*
X83416Y70670D03*
G54D17*
X84996D03*
Y69890D03*
G54D22*
X84206D03*
G54D52*
X84596Y71890D03*
X85596D03*
G54D22*
X84206Y70670D03*
G54D52*
X85496Y68790D03*
G54D155*
X122510Y97215D03*
G54D154*
X122504Y97211D03*
G54D400*
X122510Y96866D03*
G36*
X122500Y98826D02*
G01X122510D01*
Y99116D01*
X122500D01*
Y98826D01*
G37*
G54D146*
X122505Y97211D03*
G54D389*
X122200Y97066D03*
X122810D03*
G54D157*
X122505Y98971D03*
G36*
X122500Y97066D02*
G01X122510D01*
Y97356D01*
X122500D01*
Y97066D01*
G37*
G54D156*
X122504Y98971D03*
G54D155*
X122510Y98976D03*
G54D390*
X122810Y99126D03*
X122200D03*
G54D399*
X122510Y99326D03*
G54D93*
X122810Y101797D03*
G54D24*
Y100797D03*
G54D16*
X121809D03*
G54D23*
X120810D03*
Y101796D03*
G36*
X103038Y97086D02*
G01X103328D01*
Y97095D01*
X103038D01*
Y97086D01*
G37*
G54D152*
X103183Y97091D03*
G54D357*
X103708Y92465D03*
G54D358*
X103408Y93825D03*
G54D150*
X103183Y97091D03*
G54D151*
X103188Y97096D03*
G54D402*
X103539D03*
G54D395*
X103338Y97396D03*
G54D394*
Y96786D03*
G54D357*
X103408Y95165D03*
G54D459*
X104108Y102917D03*
G54D461*
Y100466D03*
G54D52*
X103608Y105398D03*
G54D461*
X103609Y100466D03*
X103108D03*
G54D54*
X103608Y104397D03*
G54D459*
X103108Y102917D03*
X103609D03*
G54D52*
X43393Y57488D03*
X44403Y58378D03*
X43403D03*
X42693Y56087D03*
X43693D03*
X44393Y57488D03*
G54D252*
X42903Y60158D03*
G54D250*
X41903D03*
G54D252*
X42403D03*
G54D251*
X43403D03*
G54D232*
X44133Y63889D03*
G54D230*
Y60888D03*
G54D232*
Y61388D03*
G54D233*
Y62389D03*
G54D230*
Y61888D03*
G54D231*
Y63389D03*
G54D230*
Y62889D03*
G54D244*
X95407Y90764D03*
X95908D03*
G54D243*
X96907D03*
G54D257*
X96407D03*
G54D249*
X94907D03*
G54D243*
X94407D03*
G54D344*
X96337Y88294D03*
G54D313*
X96107Y86944D03*
Y84443D03*
G54D336*
X97678Y88294D03*
G54D222*
X97638Y91494D03*
G54D437*
X100308Y82562D03*
G54D108*
X98908Y90624D03*
G54D437*
X100308Y89114D03*
G36*
X99634Y81502D02*
G01Y80502D01*
X99622D01*
Y81502D01*
G37*
G54D464*
X100308Y86663D03*
Y85013D03*
G54D32*
X99668Y107218D03*
X98578D03*
X97487D03*
G54D36*
X96397D03*
G54D32*
X95307D03*
X94217D03*
G54D35*
X93127D03*
G54D32*
X92037D03*
G54D39*
X100208Y108338D03*
G54D32*
X99118D03*
X98028D03*
G54D37*
X96937D03*
G54D35*
X93677D03*
G54D32*
X92587D03*
X91497D03*
G54D37*
X94767D03*
G54D35*
X95847D03*
G54D248*
X117660Y91844D03*
G54D307*
X118020Y84123D03*
G54D305*
X117620Y83253D03*
G54D248*
X118159Y91844D03*
X118660D03*
G54D52*
X117910Y88084D03*
G54D308*
X117620Y85253D03*
G54D299*
X118020Y86123D03*
G54D54*
X117810Y104397D03*
G54D52*
Y105398D03*
G54D16*
X117809Y101796D03*
Y100797D03*
G54D248*
X118660Y98346D03*
X118159D03*
G54D40*
X118289Y108338D03*
G54D248*
X117660Y98346D03*
G54D40*
X117739Y107218D03*
G54D83*
X68105Y90394D03*
G54D257*
X73406Y90094D03*
G54D243*
X72906D03*
G54D244*
X72405D03*
G54D248*
X73906D03*
X78906D03*
G54D243*
X78406D03*
G54D249*
X77906D03*
G54D243*
X77406D03*
G54D244*
X76906D03*
G54D257*
X76406D03*
G54D243*
X75906D03*
X79406D03*
X79906D03*
X75406D03*
G54D249*
X74906D03*
G54D244*
X74406D03*
M02*