M48
INCH
VER,1
FMAT,2
;FILE_FORMAT=2:4
T01C0.01528
T02C0.03143
T03C0.04418
T04C0.03565
T05C0.02627
T06C0.09266
T07C0.07561
T08C0.1062
T09C0.1334
T10C0.1156
DETECT,ON
ATC,ON
%
G90
T01
X080506Y039584
X078506Y039784
X080006Y039684
X066705Y039584
X066205
X067705Y039984
X067205Y039784
X061105Y039384
X061304Y039884
X031402Y039984
X023951Y039834
X019501Y047386
X014101Y047285
X016401Y045585
X018801Y045785
X015301Y045985
X015101Y044285
Y044885
X015601Y045485
X014301Y046285
X014201Y046786
X019901Y041084
X013701Y047785
X018801Y049786
X026802Y043885
X028202Y044485
X026902Y042184
X029502
X027702Y040384
X028702Y040184
X027002Y040384
X028602Y041184
X028402Y042085
X024902Y043985
X024002Y044685
X024402Y045385
X024501Y046185
X021201Y047086
X021701
X022201
X022801Y040284
X024801Y040484
X025502Y042085
X023401Y042585
X020401Y048486
X026902Y048386
X024301
X022701
X020901Y048486
X021501
X022101Y048586
X022902Y048786
X023401
X023901
X033802Y046985
X033502Y043685
X031202Y042285
X033602Y041084
X031402Y040484
X032402Y041084
X038703Y043085
X039803Y043885
X039303Y043785
X039703Y043085
X038803Y043785
X039503Y045285
X039803Y045885
X039403Y048586
X031602Y049686
X033202
X034603Y047785
X037203Y048886
X034602Y043185
X035103Y041484
X035703
X034102Y046085
Y045285
X035202
X038203Y045085
X036603Y044685
Y043085
X037203
X038203
X037702
X038103Y046385
X036903Y046085
X049804Y046485
Y041284
X046503Y041985
X049704Y047185
X048804Y042885
X048204Y044985
X046603Y045185
X049204Y045485
X048604Y047285
X048004Y041284
X048904Y040184
X048804Y041784
X049303
X047403Y041384
X046903
X048103Y046485
X048604Y045685
X046603Y046786
X047803Y048186
X047203Y049686
X042203Y046285
X042003Y044685
X040303Y045885
X041403Y044685
X040903
X041603Y048586
X042203Y049286
X040303Y048586
X042203Y049986
X042703Y046285
X043203Y043885
X043003Y044685
X042503
X044703Y041284
X046104Y041784
Y041284
X045203Y045185
X045703Y043585
X044703Y048586
X045203
X045003Y047785
X045903Y046685
X045203Y047386
X043203Y046885
Y047485
Y048686
Y048085
X044803Y049686
X053104Y042184
X053504Y041884
X051704
X051204Y041284
X052104
X052604
X053104Y040984
X055904Y040484
X053704Y040184
X050304Y041284
X057204Y040384
X051504Y044385
X056704Y043385
X059804Y044585
X060004Y043985
X057204Y044585
X053004Y045585
X056304Y045485
X054004Y044985
X057404Y045585
X059605Y045185
X057904Y045585
X059305Y045785
X057404Y045085
X050704Y046885
X052504Y049786
X056204Y049586
X052704Y049086
X052104Y047185
X057304Y049486
X057704Y046585
X053104Y046085
X056304Y046185
X052104Y046685
X051304Y046786
X056304
X060004Y049686
X064405Y040984
X069105Y040584
X069405Y043985
X070005Y047285
X065505Y042684
X065905Y042385
X065305Y044885
X065905
X065205Y043085
X065605Y045285
X066505Y040784
X066705Y041684
X065605Y041884
X067005Y040784
X067805Y042484
X067205Y042285
X068805Y043885
X068105
X067505Y040784
X068005
X068505Y040584
X062504Y040384
Y042085
X061604Y044585
X060805
X061805Y043785
X062305Y043685
X062804
X063305
X061004Y043985
X060604Y045185
X061405
X062204
X063705Y044885
X060404Y045785
X063705Y049786
X063205Y049686
X065505Y048486
X065105Y048286
X060805Y049286
X062504Y048486
X062405Y049686
X061805Y047886
X061105Y047986
X078106Y042784
X076606Y045885
X079206Y049086
X078706Y047185
Y047686
X078206Y047185
X079606Y048686
X078606Y048986
X079806Y049286
X078206Y047986
X071206Y040584
X071705Y040784
X072205Y040984
X072706Y041184
X073205Y041384
X073706Y041584
X078006Y040084
X075406Y042385
X076006Y042684
X077606Y042784
X071705Y042385
X073505Y042285
X074206Y041784
X077706Y045385
X076806Y043385
X077106Y045785
X070205Y044185
X071005Y044485
X073606Y044585
X075406Y044685
X075806Y044385
X076306Y044185
X077806Y043985
X077306Y043785
X079806Y044485
Y043285
X079306Y043085
X079806Y042784
X079006Y045085
X079406Y045385
X078206
X079806Y045585
X073006Y047586
X073606Y047785
X073505Y046085
X073613Y047293
X071506Y047886
X072005Y047785
X072505
X072706Y047185
X073505Y046685
X077706Y047185
X077206
X075406Y046985
Y046385
X076206Y046085
X076706Y048186
X077006Y048586
X076406Y048786
X077806Y048186
X072005Y049686
X071605Y049486
X070906Y049286
X070205Y049086
X073406Y049986
X081506Y049786
Y049286
X083106Y048486
X081106Y049986
X081406Y040384
X087507
X082406
X081906
X083706Y043186
X082506Y044485
X085807Y044885
X096207Y041884
X098607Y042085
X097208Y044285
X098207Y044685
X098808Y044985
X097407Y045085
X098007Y043921
X096107Y042985
X094907
X097444Y042921
X096807Y042885
Y041684
X098207Y042484
X096807Y045685
X092207Y049486
X091807Y049686
X092707Y049286
X091307Y049786
X093507Y049286
X093307Y048886
X094207
X094607Y048686
X097607Y047285
X096807
X096008Y047686
Y048486
Y046085
X097607Y046685
X098408Y047285
X097407Y049886
X098207
X096008Y049286
X099108Y055987
X098108Y055387
X093907Y055287
X094107Y055687
X098607Y055787
X097607Y055887
X096407Y054987
X097407Y054487
X095407Y052186
Y052687
X096308Y053887
X095807
X095107Y053587
X096207Y051886
X098607
X097808Y051286
X096807Y051886
X098607Y050886
X096407Y050086
X096908Y059588
X097307Y058888
X098907Y059088
X096107Y058788
X095907Y056888
X094107
X093607
X095707Y056387
X096908
X099008Y058088
X098307Y058388
X094707Y058288
X096107Y058188
X097707
X097508Y057587
X098408Y057488
X094307Y057388
X084407Y053987
X084906
X086107
X083606Y054587
X084306
X087307Y055287
X093307Y055687
X089907Y055287
X088307
X086607Y053387
X092707Y052486
X092607Y053287
X091907Y050586
X092507Y050786
X091907Y051086
X092107Y051886
X092707Y051386
X091407Y050586
X091107Y050186
X092707Y051986
X087507Y056087
X090107Y056787
X087207Y057287
X088207Y057887
X086306Y058488
X086807
X084206Y057887
X084707Y057788
X092907Y058088
Y057488
X093207Y057088
X088307Y051286
X087407
X085307
X084407Y051886
X078106Y051386
X075106Y053987
X074206Y054987
X083106Y054587
X082206Y053787
X078806Y053587
X076106
X077206Y053787
X077906Y052887
X079006Y052587
X077906Y052387
X080706Y052186
X082806Y059088
X082306
X078206Y051986
X080106Y051787
X079506
X080206Y051186
X078906Y051386
X080606Y050286
X083106Y051286
X080806Y050986
X081106Y050586
X074806Y050986
X077106Y051787
Y051186
X076506
X075406Y051686
X076006Y051787
X073606Y051486
X074206Y051286
X065405Y053987
X072305
X064405Y054187
X064805Y057788
X063905Y057388
X066205Y057988
X065605
X066405Y053787
X069705Y053587
X067705Y050986
X069105Y050186
X069705Y050386
X072505Y051886
X072305Y051486
X073106Y051586
X067105Y050286
X053904Y055187
X053504Y055387
X053704Y055787
X057704Y055287
X060805Y055587
X062204Y054787
X058904Y053487
X058304Y052987
X057104Y052286
X062705Y052587
X059504Y052787
X060304Y053587
X054104Y051186
X055304Y050386
X060104Y051186
X057604Y051486
X057004Y051386
X058904
X059504
X058304Y051286
X054904Y058188
X053704Y059588
X053504Y058988
X059104Y058288
X058104
X058604
X049804Y050786
X044603Y059388
X049104Y059688
X048204Y059288
X049804Y059088
X048604Y059888
X053104Y055187
X050804Y053287
X052104Y052186
X051104Y052887
X051404Y053287
X053004Y053187
X053404Y052987
X050004Y050386
X050804Y051686
X051704Y051386
X052704
X052254Y051336
X051704Y051986
X051204Y051386
X053004Y058988
X053104Y058388
X047203Y050186
X047004Y050586
X048804Y055187
X048304Y054987
X047004
X047604Y055387
X048004Y055587
X048804Y055687
X049603Y055387
X047004Y052687
Y052186
Y051086
X049504Y054887
X044803Y050486
Y050986
X044753Y052637
X044803Y051586
X044703Y052186
X049603Y057088
X042403Y051686
X039803Y051886
X041603Y051486
X041203Y052987
X042203Y052687
X039303Y052587
X039703Y052987
X039003Y052186
X041603
X042703Y050986
X043103Y051486
Y051986
X037203Y058788
X036402
X037803Y058688
X034602Y057587
X042603Y057988
X042203Y057788
X041703
X038902Y057688
X042003Y058188
X040903
X038902Y058688
X033502Y053087
X036202
Y054487
X038403Y052387
X037402Y052687
X035502Y052887
X034602Y051286
X038103Y052987
Y057088
X037603Y056888
X037203Y056687
X040503Y057287
X039703Y056287
X040203
X038902Y057188
X036003
X034002Y057388
X034302Y056387
X033702Y056087
X041803Y056987
X042303Y057188
X031902Y059888
X026002Y057287
X024002Y058188
X025302Y057887
X026102
X023901Y057488
X026202Y059888
X025602Y050386
X033202Y050586
Y051086
X031602Y054287
X027102Y054787
X033102Y054687
X024702Y054787
X031302Y057088
X033102Y057388
X032902Y056687
X031802Y057088
X020301Y058088
X019101Y057488
X021901
Y058188
X023401
Y057488
X020901Y059988
X021401
X019901Y052186
X018801Y053087
X019801Y055687
X023202Y054287
X022902Y055687
X020901Y055787
X012501Y055987
X005700Y050786
X013101Y053487
X007900Y055087
X011501Y056587
X013200Y057488
X007900Y057587
X012000Y059518
X005600Y068490
X009101Y067190
X007800Y063889
X007900Y060488
X008500Y061488
X011400Y069390
X011601Y069790
X020001Y069490
X019501
X019001
X013301Y063489
X019901
X018501Y064989
X013301Y064389
X011601Y060888
X019501Y060088
X010400Y063389
X019501Y061688
X025602Y061289
X023502Y069590
X022902
X022101
X020501Y066990
X020101Y067490
X020401Y063489
X020901
X021401
X021901
X022401
X022902
X024402Y064089
Y064589
X024002Y064989
X027302Y064589
X024501Y063589
X025502Y060488
X023401Y061188
X027102Y060288
X026502
X022401
X022902Y060188
X023401
X023901
X022001Y060088
X027102Y062989
Y062288
Y061788
X024501Y062989
X025302Y062189
Y061688
X024002Y061388
X022801
X020601Y061788
X038002Y069290
X037603Y069490
X037003Y069890
X036502
X030902Y062489
X033502Y065989
X033802Y067790
X033402Y068090
X034402Y069090
X031802Y066189
Y066990
X031402Y067290
X031802Y060488
X031502Y060888
X037503Y061088
X038103
X038703Y061188
X039403
X039103Y068890
X038503Y069090
X034902Y068590
X035804Y067090
X038902Y066890
X031502Y061488
X033402
X036202
X037303Y061889
X034203
X033702
X034602Y062088
X040003Y061488
X038902Y061688
X031902Y064789
X037303Y064089
X037402Y065489
X038297Y065295
X033502Y064589
X038302Y064289
X043403Y065889
X050004Y069190
X046503Y069590
X049303Y069890
X041503Y060988
X049603Y060788
X048403
X042503Y067590
X045003Y066089
X046003
X042903Y065989
X043003Y066489
X042903Y066990
X046803Y067389
Y066690
X045003Y066589
X049454Y066239
X048453
X048004Y064489
X050010Y064989
X049303
X048004Y061788
X045103Y062588
X044903Y063089
Y063789
X048703Y065689
X045003Y065589
X040603Y062489
X042903
X042603Y062889
X041503Y061488
X042103Y061688
X041403Y062388
X042703Y063389
X043203
X042603Y065189
X043203Y065089
X042803Y064689
X040203Y064289
X043203Y064089
X042503Y063789
X054304Y065789
X059605Y061889
X058004Y069490
X054004Y069390
X053104
X052604
X052404Y069790
X053204Y069890
X056904Y062789
X057904Y062889
X053904Y064189
X055904Y064289
X053504Y065189
X059704Y069790
X059504Y068890
X059404Y068390
X059704Y069290
X053504Y061988
X050704Y062588
X059404Y062689
X058804Y062088
X056304Y060988
X056104Y060488
X053704Y060388
X053104Y061788
X058804Y060588
X059905Y060888
X054304Y068790
X058904Y068390
X058304
X057904Y068590
X053304Y066289
X068605Y069290
X060104Y061889
X065805Y060988
X064705Y061589
X069205Y061788
X060805Y065989
X060505Y066990
X065505Y066789
X061705Y068190
Y068990
X066705Y069590
X065905
X067305
X068005Y069490
X063905Y062088
X060205Y060188
X071105Y068790
X070705Y068590
X077906Y067190
X076106Y066890
X075406Y066789
X077106Y066990
X079006Y067389
X075706Y060988
X078906
X076206Y060788
X077306Y061788
X077706Y061589
X076506Y061388
X074806Y063789
X079606Y067590
X071105Y064789
X079206Y065189
X078506
X070305Y068990
X071605Y069790
X079906Y061988
X086807Y061889
X082406Y063789
X081456Y069390
X084806Y061788
X086807Y061388
X086407Y061188
X085607Y060988
X084606
X084407Y060188
X082306Y060088
X086807Y066390
X087007Y066789
X082706
X082006Y066089
X087807Y066189
X085406
X088607Y063689
X087707Y063589
X082806Y063189
X088807Y067389
X088107Y067990
X086506
X085406
X082506
X082006
X081506
X086707Y067190
X088307Y068690
X089207Y067689
X089607Y068290
X083106Y064389
X084707Y064089
X083506Y063989
X089007Y063889
X087407Y063989
X089507Y064089
X087807Y064189
X089007Y064389
X089507Y064889
X082106Y065589
X089007Y064889
X082206Y061988
X081406Y062388
X085607Y062489
X080506Y062189
X084806Y062388
X088707Y062689
X087007
X097208Y065789
X090407
X098708Y061188
X094307Y060588
X098607Y061688
X097407Y061488
X099108Y060268
X097808Y066690
X098508Y066390
X099008
X097607Y066089
X098108
X094507Y062889
X093107Y063189
X092907Y063589
X098808Y063389
X090707Y069490
X090507Y069990
X095707Y069190
X096207
X098207Y069390
X093707Y069690
X097407
X096008Y069790
X098907Y069190
X098207Y067490
X095707Y067990
X096207Y068590
X095707
X093707
X097808Y068390
X090807Y068690
X090207Y068290
X097607Y064289
X098207Y063989
X098808Y064789
X090107Y065089
X098607Y065489
X095107Y065189
X095007Y062689
X094107Y062288
X098708Y062588
X095307Y062288
X090307Y062088
X096807Y071890
X095607Y079692
X097607Y072090
X098007Y072291
X095807Y072491
X098708Y072690
X095407Y073291
X093607Y074491
X098307Y074291
X096507Y074091
X099008Y073891
X096807Y073491
X095707Y073791
X098307Y070090
X096407Y070490
X099008Y070890
X095607Y071290
X097607
X098207
X097607Y070490
X098207Y078992
X098808Y078192
X098007Y079392
X097707Y077491
X099108Y076291
X098307Y074991
Y075591
X098508Y076091
X097407Y076291
X098708Y076992
X094207Y079492
X089307Y071790
X090907Y074791
X087107Y074891
X087607
X085106Y074791
X087007Y072291
X086407Y072390
X090507Y074191
X089507Y073991
X088407Y074391
X089407Y074491
X085106Y074291
X090507Y070790
X088407
X086207Y071691
X085106Y075291
X086907Y075491
X089107Y077292
X090707Y075291
X088407Y077491
X090907Y075791
X085207Y077992
X086707Y077892
X084806Y078192
X087507Y078092
X087907Y078492
X087507Y078692
X086707Y078392
X089607Y079392
X081506Y071786
X079356Y071240
X078856
X080206Y071290
X081506Y074791
X074906Y079592
X075005Y072491
X077656Y072641
X080706Y072591
X079906
X078906
X078306
X082506Y072990
X081806Y072191
X080406Y074691
X081806Y073991
X079706Y074391
X082506Y073891
X080906Y074691
X078206Y075691
X080306Y075491
X079906Y076091
X079306Y075891
X078656
X082306Y076591
X080906Y075291
X081506
X074806Y075591
X079606Y077792
X081906Y078192
X082706Y078292
X068505Y070090
X072706Y079692
X071105Y070390
X070005Y071091
X071005Y071190
X070555Y071140
X069705Y070290
X071806Y070390
X063505Y070090
X068105Y070390
X064105Y070490
X065305Y075191
X067805Y071991
X068305
X067205Y072090
X066705Y072191
X066099Y074585
X066805Y074591
X068505Y074791
X069705Y072390
X069605Y075191
X070105
X070606
X071105
Y075691
X070705Y076191
X071605Y075191
X071206Y076291
X071105Y076792
X067805Y079792
X067205
X065005
X068305
X072205Y079592
X064005Y079792
X064505
X058604Y079492
X058104Y070390
X055104Y070790
X061105Y070690
X061604Y074591
X061805Y072390
X062305
X062804
X059404Y079892
X059005Y079692
X058204Y076891
X057604Y075691
X057304Y075291
X057004Y074891
X055804Y074491
X056404
X056104Y074891
X056704Y075391
X057604Y076191
X058104
X058204Y079292
X058504Y076391
X060505Y076992
X061105Y074591
X060004Y074391
X059005Y077292
X058604Y077092
X059404Y076992
X059905
X055504Y074091
X055204Y074491
X054904Y074091
X054404
X050504Y071890
X048403
X046603Y070190
X051204Y070290
X052304
X047604Y070390
X047904Y070790
X048403Y070890
X046203
X046603Y071091
X050404Y071391
X046603Y071691
X048403Y071391
X051504Y070990
X050904Y070790
X052104Y070690
X051904Y071190
X050904Y071290
X044803Y073291
X050204Y072690
X050704
X052104Y073691
X051504
X047704Y077092
X045503Y077292
X044703Y076891
X036003Y070090
X039103Y072990
X033502Y073891
X033902Y073691
X034302Y073491
X034702Y073291
X037903Y072491
X035103Y073091
X036802Y072990
X037402
X035502Y072891
X034002Y077992
X038503Y076891
X035302Y077392
X034702Y077491
X038703Y077992
X037702
X036703
X035703
X043003Y073191
X039603Y072990
X040803Y072390
X041903Y076792
X039703Y076891
X040503
X041103Y077092
X043403Y078392
X039903Y078292
X041103
X041603
X042403
X042903
X040203Y077692
X039403
X040603Y077992
X042003Y078092
X039403Y079992
X038403
X028602Y079492
X033102Y074091
X032702Y074291
X033302Y079392
X031402Y078792
X031602Y079192
X025702Y074591
X024602Y074291
X025702Y074091
X023901Y073991
X024702Y073691
X025202
X023502Y074291
X024902Y078392
X024002Y078692
X024902Y077892
X031802Y079692
X024902Y076891
Y077392
X028002Y076692
X027402
X017801Y074691
X015101Y074191
X016801Y073591
X014701Y074591
X020201Y071991
X020701
X021201
X022701
X021901
X019701
X019201
X020001Y079092
Y079792
X018001Y077191
X014901Y075691
X017601Y075891
X017701Y076576
X015901Y076692
X019801Y076992
X010200Y070690
X010500Y070190
X012600Y072390
X010635Y072555
X012600Y072990
X010700Y073426
X012600Y073591
X010601Y074491
X012600Y075391
X008801Y078092
X010700
X013200Y079992
X012501Y075891
X011201Y076291
X008000
X008042Y077249
X008900Y076992
X009500Y076792
X008200Y089294
X010001Y080592
X007900Y080492
X009401
X016201Y081392
X016901
X015701
X015201
X016201Y088694
X016501Y087794
X017501
X018401Y088694
X018851Y085443
X016401Y084793
X015001Y082293
X011301Y082792
X010700Y082893
X014901Y088194
X015595Y088800
X011001Y089694
X017801Y081292
X019601Y081193
X013701Y080492
X016701Y082393
X017201
X017701
X018201
X019701
X018701
X014101Y083893
X017801Y084293
X013501Y086193
X014201Y085893
X014601Y086993
X018801Y086093
X025602Y088494
X028002Y086794
X030002
X029402Y086293
X025987Y086809
X026902Y083092
X026502Y082893
X029902Y082492
X020301Y084393
X028102Y083993
X025102Y083992
X029202Y083893
X034402Y083293
X034902Y083392
X034402Y081322
X031602Y087494
X038703Y087293
X034402
Y086794
Y086293
Y085793
X039603Y087293
X034402Y085293
Y084793
X037303Y084593
X036003Y088194
X037402Y089894
X037003Y087994
X037903Y089894
X038902
X038403
X032102Y088094
X034503Y089394
Y088694
Y089894
X034402Y082823
Y082323
Y081822
X031702Y081793
X032602Y081592
X034402Y080822
Y080322
X036402Y080092
X032402Y081092
X031702Y080592
X032202
X032002Y080092
X037402
X039403Y080692
X036102Y083993
X035703Y083793
X034402
X035302Y083593
X036502Y084193
X034402Y084293
X036903Y084393
X044403Y087694
X043003Y087394
X040303Y087293
X042003
X047103Y080892
X049504Y082792
X046903Y086894
X048204Y086794
X047704Y086593
X048804Y086494
X048204Y086093
X048804Y085893
X049404
X049603Y085493
X040503Y089594
X042903
Y088794
X044403Y088694
X047304Y087794
X047803Y089294
X045903Y089394
X049704Y089888
X040603Y080692
X040203Y080092
X041203Y080692
X041803
X042403
X043103
X044003Y083693
X059804Y080092
X056904Y081292
X053004Y083193
X052504Y083092
X055204Y082093
X054704Y082293
X054304Y082492
X053804Y082693
X055704Y081892
X056104Y081692
X056504Y081493
X052004Y082993
X057604Y087394
X059204Y086794
X056204Y088894
X058004Y089694
X057804Y087794
X055704Y085493
X055204Y085393
X054804Y085093
X054304Y084993
X053804
X053304
X052904Y084793
X052004Y085793
X051604Y085993
X050304Y088594
X064505Y089994
X064105Y089594
X068135Y087924
X060604Y080492
X060205Y080292
X061004Y080792
X061405Y084793
X061904
X062405
X066205Y084993
X066105Y085493
X063205
X065005Y086593
X060505Y088594
X062905Y089394
X072406Y088894
Y087494
X072905Y083293
X073406
X073906
X074405
X078206
X076906
X076406
X075906
X075406
X074906
X072205Y089294
X075206Y085693
X075506Y081292
X074906
X076706
X072505
X074306
X073106
X073706
X076106
X074806Y089394
X075005Y088894
X078906Y083493
X078106Y083793
X074405Y087293
X073205
X073805
X078706
X075106
X075806
X076406
X077006
X077606
X078106
X073406Y085293
X076406
X073906
X076906
X079006Y085493
X078306
X074906Y085293
X075906
X074405
X072905
X087907Y083293
X088207Y088494
X090007
X083006Y082393
X081906Y080092
X082006Y081793
X081906Y089394
Y088894
X083106Y089794
X084006Y088795
X087207Y084393
X089407
X089007Y084193
X087607Y083993
X085607Y083493
X086306
X087107Y087293
X087907Y086558
X082806Y085893
X088207Y081292
X087907Y080892
X085813Y080298
X081906Y085193
X081706Y085593
X082606Y085393
X093207Y087794
X091107
X092507Y084593
X099408Y088694
X094507Y088094
X094007Y087894
X095507
X098708Y089694
X099207Y088194
X098007Y082093
X090407Y089894
X092807Y088094
X091807
X093607
X097508Y089394
X090807Y083593
X094707Y083793
X093707Y083893
X093107Y083993
X093707Y083392
X094207Y084193
X095107Y084493
X092207Y087494
X097508Y086093
X095107Y087694
X098007Y087094
X090807Y083092
Y082492
X092707
X092007Y080592
X091207Y081793
X091507Y081392
X094007Y080192
X093007
X093407Y080392
X096008Y080792
Y081892
X093707Y082792
X092707Y080592
X091707Y080992
X092407
X090907Y084693
X090407
X092807Y084993
X093207Y085393
X094507Y084793
X106709Y088394
X105308Y088094
X109809Y089594
X102608Y088094
X103108
X103708Y089894
X102108Y088094
X100308Y088294
X105308Y082293
X105908
X104808Y082393
X103708Y083593
X102008
X100808
X109809Y087593
X109409Y087293
X103708Y086693
X102458Y085843
X114609Y083193
X118409Y083293
X112509Y086093
X115009
X112109Y086593
X115609Y086693
X112609Y087094
X117209Y086693
X117909Y087293
X119409Y087694
X111809Y086093
X115009Y084893
Y088094
X112509Y084493
X116809Y083493
X119409Y083092
X117609Y082693
X119609Y088394
X124010Y087994
X125810Y088594
X126510
X125510Y089194
X120210Y086593
X121009Y086093
Y087094
X123110Y086993
X125910Y086593
X122710Y085093
X120510Y085593
X120810Y085093
X125510
X125410Y083793
X130010Y083893
X126410
X121509Y082593
X129610Y082293
X130416Y089500
X133416Y089700
X133911Y087894
X133210Y087494
X132410Y083893
X147312Y084493
X147612Y091895
X133617Y095901
X126410Y099596
X123910Y098396
X125610Y090294
X124010Y091094
X132410Y099696
X124010Y094095
X123810Y097796
X124810Y097496
X124910Y094595
X124310Y095495
X127410Y095895
X124610Y096596
X123909Y096896
X129610Y095895
X131410Y093295
X132060Y095445
X131616Y095901
X132310Y093295
X120510Y099996
X120210Y099596
X121309Y098396
X122710Y091394
X122209Y092294
X121009Y094295
X120709Y095895
X122809Y094995
X115409Y092695
X113609Y093595
X115509Y090494
X115109Y090695
X114609
X114109
X113609
X114659Y097645
X113809Y097295
X114209Y095595
X115159Y097645
X117209Y094395
X117109Y090695
X117659Y097645
X116709Y096495
X117209Y096795
X116609Y090695
X116109
X116709Y095195
X119809Y090094
X118309Y093095
X118709Y095095
Y095595
X118309Y096095
X118609Y096795
X118309Y093595
X118159Y097645
X118659
X104408Y097496
Y098496
X113209Y090194
X112609Y092095
X112209Y097596
X111409Y099196
X111709Y099596
X104508Y093195
X104708Y096896
X106208Y097496
X105208Y097196
X106709Y093995
X107609Y097796
X106008Y090494
X105808Y098096
X105508Y094595
X107408Y094695
X106208Y096596
X110309Y092095
X107909Y093995
X110208Y093895
X109709Y093495
X109109Y092895
X108908Y090695
X109409Y098096
X110208Y095095
X104108Y098896
X103608Y098596
X093807Y093495
X096507Y096296
X099308Y092795
X094706Y091693
X094607Y093395
X094907Y097496
X094407
X093907Y097395
X096308Y092995
X095607Y093395
X095407Y097496
X095907
X096407
X095407Y096995
X095907Y096896
X098307Y093195
X099008Y098096
X098408Y096195
X101808Y092895
Y098296
X102708Y093795
X102208Y094995
X102608Y090194
X102108Y096195
X103338
X103208Y098896
X103308Y098196
X100613Y096790
X100708Y090194
X101708Y093495
X100208
X099807Y093995
X101508Y095495
X099807Y096195
X100708Y093995
X101108Y098896
X097407Y098096
X096908Y091994
Y094395
X097508Y090494
X096608Y091595
X096908Y092495
Y094995
Y095995
Y095495
X085907Y092495
X087407Y091994
X087307Y095495
X087907Y091994
X086907
X088907Y091794
X089607Y098696
X092807Y093395
X092307
X092007Y096296
X090907Y096195
X091207Y095695
X091507Y095295
X092907Y096495
X093407
X092407
X093307Y093495
X091313Y093389
X091807Y093395
Y094795
X083806Y091694
X084407Y091895
X084906Y092095
X085406Y092294
X083506Y099596
X081206Y094495
X081306Y092395
X081706Y094495
X082206
X074206Y099796
X074006Y091794
X073706Y099996
X074606Y091595
X075906Y097896
X076106Y099596
X074906Y092895
X075005Y094595
X075406Y092395
X080656Y094495
X079206Y091595
X079506Y091994
X080106
X080706Y092195
X080156Y094495
X079606
X076806Y099396
X077506
X080306Y099796
X080906Y099996
X081906Y099396
X082706
X072406Y094595
X068105Y090394
X068905Y093195
X065505Y090794
X066605Y090194
X065605Y090094
X065005
X063605Y093195
X068305
X068905Y099596
Y099096
X070105
X073106Y098196
X072905Y098596
X072805Y091994
X073406
X064205Y094995
X064605Y095195
X057904Y094795
X061304Y094695
X063404Y092495
X053504Y095895
X056304Y095295
X056004Y094895
X054304Y095995
X060604Y095195
X060704Y096695
X060205Y099796
X055104Y093895
X053704Y092895
X053804Y091194
X053604Y094295
Y093695
X055204Y090995
X058204Y090194
X060110Y090995
X061210Y091094
X060604Y090794
X062755Y093245
X057904Y094295
X045403Y096795
Y097295
Y091295
X051404Y095095
Y095695
X052804Y095895
X052404Y097496
X051204
X051804Y097696
X051304Y091794
X052004Y093395
X049003Y099696
X049504Y099896
X047004Y098296
X045503Y098596
X047004Y098896
X046003Y099396
X048504Y099496
X043803Y099996
X045003Y091494
X044103Y091295
X044503Y091494
X043653Y091545
X043703Y094395
Y096395
Y095195
X048403Y092395
X047403
X046203Y091295
X049653Y090944
X047004Y097796
X045503
X047004Y097295
X050804Y097095
X046203Y096695
X047004Y096495
X045703Y096095
X047103Y095795
Y095295
Y094295
X035703Y093195
Y094695
X033702Y099196
X035902
X038203
Y099696
X035902
X041403Y091295
X040403
X042003
X040903
X041453Y098446
X040753
Y097945
X041503Y097496
X040753Y097446
X041503Y096995
X040703Y096896
X040903Y095695
X041403
X040803Y094895
X042503Y091295
X043303
X042903Y091595
X043003Y094395
X037102Y093895
X036703Y096695
X036303Y097496
X036903Y091295
X036402
X035902
X036802Y098396
X036603Y097996
Y098896
X038503Y095895
X038203Y095495
X038403Y095095
X038503Y091295
X038002
X039403
X039003Y096495
X039903Y091295
X038203Y098696
X034302Y099096
X033902Y094695
X035002Y098596
X035302Y097896
X035403Y091295
X034203
X033702
X033602Y093195
X035202
X034702
X034203
X034302Y099596
X033702Y099696
X027102Y096195
X031702Y099196
X026102Y093995
X026402Y091094
X025402
X027802Y093695
X031702Y097196
X030102Y097496
X031702Y097996
X029702Y096296
X031702Y095995
X030102Y095495
X030702Y094195
X030102Y096795
X033402Y095895
X033302Y094695
X028402Y090995
X027402Y091094
X027802Y093030
X031502Y092995
X029102Y092695
X030402Y091094
X029402
X031902Y090194
X032402
X033002
X032002Y092995
X031702Y099696
X032902Y099296
X033202Y099696
X017601Y093395
X019801Y090194
X023301Y095895
X005400Y093995
X013001Y091794
X011001
X029502Y101897
X028902Y105497
X036502Y103597
X039203Y103297
X036703Y101296
X038503Y101397
X038002
X037203Y103397
X036102Y101296
X031102Y101397
X030602Y109598
X032902Y103497
X035508Y103503
X034509Y103703
X033702Y101596
X034902Y103397
X034302Y101296
X032402Y103497
X032602Y101496
X033608Y103703
X040203Y102297
X049204Y102597
X048204
X047203
X046203
X046704Y103097
X049903Y100096
X045903Y103197
X047503Y106297
Y103497
X046203Y103597
X049504Y103697
X048604Y103797
X048910Y106291
X040309Y103603
X043403Y100296
X041703Y101397
X040303
X045203Y103497
X044209Y103603
X041209
X040703Y103897
X045203Y102597
X042203Y103497
X043203Y103297
X044203Y102797
X051304Y100296
X052904Y103497
X051204Y102597
X052204
X052604Y104896
X053204Y102597
X053904Y101097
X054604Y100496
X054404Y104397
X059305Y106297
X058498Y103203
X059504Y102797
X058104Y102297
X050304Y100296
X050804
X069205Y104397
X068105
X066705Y103897
X069905Y104297
X063905Y103697
X063605Y102197
X064405Y104297
X064705Y105597
X065005Y108798
X066305Y102897
X065405Y104397
X062305Y106497
X060505Y102797
X074705Y104197
X070405Y104297
X076706
X078006Y102297
X078406Y102696
X076706Y102897
X078606Y103397
X085907Y106098
X088107Y103597
X089007
X090007Y103797
X089507Y106098
X089001Y106092
X082906Y104697
X082905Y105996
X081006Y106597
X084707Y108898
Y109998
Y100296
X085207Y100096
X081306Y100296
X080406Y100696
X083106Y101397
X082006Y102897
Y103997
X080706Y103497
X080406Y102197
X080206Y103497
X080806Y102497
X080206Y102897
Y101796
X094007Y103697
X095001Y103797
X096207Y101496
X096008Y103697
X098007
X098207Y102696
X098601Y103697
X099008Y103397
Y102897
X099608Y103697
X093007
X091507Y103897
X097707Y100797
X097208Y100696
X096608Y103697
X097208
X097707Y102696
X106208Y109298
X104508Y101997
X104708Y102396
X109815Y103503
X104614Y103397
X108809Y103597
X105108Y103697
X105608
X106709Y103797
X100608Y102696
X100208Y103697
X117609Y103197
X117209Y103797
X119809Y102797
X118709Y102897
X118815Y103797
X113815Y102903
X114815Y103197
X110814Y103503
X124410Y102797
X123710Y103797
X123509Y104396
X129416Y102696
X133410Y102897
X135711Y103997
X153412Y100596

X126810Y110098
X025402
T02
X012900Y040384
X014901
X013901
X012701Y043085
X014700
X013701
X017901Y040384
X016901
X015901
X021901
X019901
X018901
X020901
X021701Y043085
X016701
X019701
X020701
X018701
X017701
X015701
X042403Y040584
X039403
X040403
X041403
X043403
X044403
X035403
X036402
X038403
X037403
X078406Y060088
Y059088
X079406
X080406
X079406Y060088
X080406
X077406
Y059088
X081406Y053086
X078406
X077406
X079406
X080406
X081406Y059088
Y060088
X071405
X074405Y059088
X073406
X075406
Y060088
X074405
X073406
X071405Y059088
X072406
Y060088
X076406Y059088
Y060088
X074405Y053086
X076406
X075406
X067405Y059088
X068405
X069405
X070405
X069405Y060088
X067405
X068405
X070405
X067405Y053086
X068405
X069405
X070405
X071405
X072406
X073406
X063405Y059088
X065405
X066405
X064405
X062405
Y060088
X063405
X066405
X065405
X064405
Y053086
X065405
X061405
X063405
X062405
X066405
X061405Y059088
Y060088
X015451Y055948
X013951
Y058949
X015451
X014700Y053448
X013951Y052948
X014700Y052447
X013951Y051948
X015451
X016201Y052447
X015451Y052948
X016201Y053448
X013951Y053948
X015451
X016201Y054448
X015451Y054948
X016201Y055448
X014700Y054448
X013951Y054948
X014700Y055448
Y058449
X016201
X015451Y057949
X016201Y057449
X015451Y056948
X016201Y056448
X014700
X013951Y056948
X014700Y057449
X013951Y057949
X015451Y059949
X016201Y059449
X014700
X013951Y059949
Y065950
X014700Y061449
Y068451
X013951Y067951
X014700Y066450
X013951Y066950
X014700Y067451
Y063450
X013951Y063950
X014700Y064450
Y065450
X013951Y064950
Y060949
X014700Y060449
X013951Y061949
X014700Y062450
X013951Y062950
X015451Y065950
X016201Y061449
X015451Y066950
Y067951
X016201Y067451
Y068451
Y066450
Y063450
X015451Y063950
X016201Y064450
X015451Y064950
X016201Y065450
X015451Y060949
X016201Y060449
X015451Y062950
X016201Y062450
X015451Y061949
X052804Y063089
Y066089
X058804Y063089
X064405Y066089
X062405
X061405
X063405
X058804
X068405
X070405
X069405
X071405
X072406
X073406
X074405
X073980Y069890
X074767
X073192
X072406
X067405Y066089
X066405
X065405
X078406
X076406
X077406
X075406
X078702Y069890
X077915
X077128
X079489
X080276
X082637
X081850
X081063
X083424
X079406Y066089
X080406
X081406
X084211Y069890
X084998
X075554
X076341
X085786
X086573
X087360
Y070677
X088807Y079292
X079489Y070677
X078702
X077915
X077128
X081063
X080276
X083424
X082637
X081850
X084211
X084998
X085786
X086573
X074767
X075554
X076341
X073980
X072406
X073192
X028902Y077292
X022239Y079015
X023026
X022239Y078228
X023026
Y079802
X022239
Y077440
Y076653
X023026
Y077440
X006500Y081402
X007500
Y084983
X006500
X008910Y087984
X006500Y082783
X007500Y082093
Y082783
X010290Y087984
X007500Y084293
Y083603
X006500
Y087184
X010290Y087004
X009600
X008910
X006500Y085803
X007500
Y086493
Y087184
X023026Y087674
X022239
Y081376
X023026
X022239Y089248
X023026
Y088461
X022239
X023026Y090035
X022239
X023026Y084525
X022239
Y085312
X023026
X022239Y080589
X023026
Y082164
X022239
Y082951
X023026
X022239Y083738
X023026
X022239Y086099
Y086886
X023026
Y086099
X027902Y083293
X029902
X110509Y084793
X109509
X108509
X111509
X109908Y082893
X108908
X107909
X111909
X110909
X136810Y098496
Y099496
Y097496
X135810Y099496
Y098496
Y097496
X087360Y096095
Y096883
X085786Y096095
Y096883
X081063Y096095
Y096883
X086573
Y096095
X081850Y096883
X082637
X083424
X081850Y096095
X082637
X083424
X084211Y096883
X084998
X084211Y096095
X084998
X077128
X077915
X078702
X077915Y096883
X078702
X077128
X079489Y096095
X080276
Y096883
X079489
X072406Y096095
Y096883
X073980
X073192
X073980Y096095
X073192
X074767Y096883
Y096095
X076341
X075554
Y096883
X076341
X019801Y095795
X020801
X018801
X022239Y090822
X023026
Y091609
X022239
Y092396
X023026
X021801Y095795
X022239Y093184
X023026
X007000Y098756
X009000
Y097095
X011400
X011000Y098756
X005000
Y097095
X006600
Y103097
X005000Y101497
Y103097
X007000Y101497
X009000Y103097
Y101497
X013991Y102707
X011000Y101497
X014991Y102707
X011400Y103097
X015991Y102707
X016991
X063405Y101497
X064405
X062905Y100696
X063905
X064905
X056904
X055404Y101497
X056404
X055904Y100696
X057404Y101497
X058404
X059404
X058904Y100696
X057904
X059905
X060404Y101497
X061405
X062405
X060904Y100696
X061905
X070405Y101497
X067405
X068405
X067905Y100696
X066905
X069905
X068905
X069405Y101497
X065905Y100696
X065405Y101497
X066405
X114809Y100797
X113809
X112809
X106809
X107808
X108809
X109809
X110809
X111809
X106809Y101797
X112809
X113809
X114809
X107808
X108809
X109809
X110809
X111809
X119810Y100797
Y101797
X115809Y100797
Y101797
X120810
X122810
X120810Y100797
X121810
X122810
X117810Y101797
Y100797
X116809Y101797
Y100797
X118809Y101797
Y100797
X136810Y101497
Y100497
X135810
Y101497
T03
X083607Y081292
X082806Y078892
X084807
X086607Y081292
X085107Y094295
X004680Y104517
Y106488
X009600Y105498
X007630Y106488
X010580Y104517
X035833Y107218
X040193
X039103
X039643Y108338
X038012Y107218
X037463Y108338
X036372
X038553
X036923Y107218
X042363
X041273
X040733Y108338
X041823
X043453Y107218
X044543
X044003Y108338
X042913
X035282
X034742Y107218
X046723
X045633
X046183Y108338
X045093
X072265
X066815
X073346
X074436
X072805Y107218
X073896
X067905Y108338
X068445Y107218
X067345
X069535
X070625
X071715
X071176Y108338
X070085
X068995
X066265Y107218
X076616Y108338
X075526
X074986Y107218
X076076
X077706Y108338
X077166Y107218
X078266
X079346
X078796Y108338
X093677
X090947Y107218
X094257Y102047
X094217Y107218
X089317Y108338
X090407
X089847Y107218
X088767
X092037
X091497Y108338
X092587
X093127Y107218
X096397
X094767Y108338
X095307Y107218
X095847Y108338
X098028
X099118
X098578Y107218
X101848
X100768
X099668
X101298Y108338
X100207
X096937
X097487Y107218
X111209
X112299
X113389
X114479
X113928Y108338
X112838
X111748
X119920Y107218
X116109Y108338
X115018
X115569Y107218
X123190
X121560Y108338
X122650
X121010Y107218
X122100
X120470Y108338
X117200
X117739Y107218
X116659
X118290Y108338
X119379
X118830Y107218
X132581
X133670
X133130Y108338
X134221
X136941Y107218
X134761
X135301Y108338
X136390
X135850Y107218
X147882
X148972
X150062
X151153
X150602Y108338
X149512
X147341
X148432
X146791Y107218
X006650Y109438
X007630
X008610
T04
X009600Y088494
X005770Y082093
X005850Y084293
Y086493
X089707Y078692
X136810Y097496
X051504Y088894
X053504
X009120Y094695
X014361Y092495
X012401
X011080Y094695
X026421Y103297
X028382
X094257Y102046
X092297
T05
X085806Y079292
Y078292
X088807Y079292
X129610Y082293
T06
X015451Y050197
Y070201
X024242Y105417
T07
X017551Y109798
X012801Y101416
X012990Y105418
X024242
X024801Y101416
X147882Y107218
T08
X008900Y040904
X015451Y050197
X004860Y108938
X032012Y107718
X049453
X063545
X082066
X086047
X104568
X108479
X125920
X131410Y108998
X129840Y107738
X139681
X144052
X152037Y108998
X153892Y107738

T09
X152802Y073691
X017721Y100206
T10
X004860Y042045
X091687
X152802Y073691
X141001
M30
